/* XPM */
static char * image[] = {
"16 16 130 2",
"00 c #771ad3",
"01 c #5807c4",
"02 c #5706c3",
"03 c #4902b9",
"04 c #3b00aa",
"05 c #4701b8",
"06 c #5606c2",
"07 c #3f00af",
"08 c #4a02ba",
"09 c #5f0ac8",
"0a c #4000b0",
"0b c #4100b2",
"0c c #5505c2",
"0d c #7216d1",
"0e c #6910cd",
"0f c #4300b3",
"0g c #3800a3",
"0h c #5305c0",
"0i c #4801b8",
"0j c #3d00ac",
"0k c #6e13cf",
"0l c #7417d2",
"0m c #4c02bb",
"0n c #670ecc",
"0o c #4200b3",
"0p c #5c09c6",
"0q c #7f21d7",
"0r c #640dca",
"0s c #4301b4",
"0t c #3700a1",
"0u c #4100b1",
"0v c #5e09c7",
"0w c #7317d2",
"0x c #4e03bd",
"0y c #3800a2",
"0z c #3a00a8",
"0A c #3e00ad",
"0B c #7b1ed5",
"0C c #9538df",
"0D c #3b00a9",
"0E c #5204c0",
"0F c #630cca",
"0G c #7518d2",
"0H c #4f03bd",
"0I c #3900a5",
"0J c #4b02bb",
"0K c #7a1cd5",
"0L c #882ada",
"0M c #8425d9",
"0N c #6d12cf",
"0O c #8426d9",
"0P c #660ecb",
"0Q c #781bd4",
"0R c #8122d7",
"0S c #5004be",
"0T c #7a1dd5",
"0U c #8123d8",
"0V c #7c1ed5",
"0W c #4f03be",
"0X c #7d1fd6",
"0Y c #6c12ce",
"0Z c #791bd4",
"0! c #6f14d0",
"0# c #5b08c5",
"0$ c #8527d9",
"0% c #5405c1",
"0& c #4d03bc",
"0( c #37009c",
"0) c #4701b7",
"0* c #8e30dd",
"0+ c #983ce0",
"0, c #4401b5",
"0- c #7015d0",
"0. c #5907c4",
"0/ c #3900a6",
"0: c #3c00ab",
"0; c #5104bf",
"0< c #4501b6",
"0= c #650dcb",
"0> c #9437df",
"0? c #610bc9",
"0@ c #3a00a7",
"0[ c #7317d1",
"0] c #8022d7",
"0^ c #37009d",
"0_ c #4200b2",
"0{ c #620cc9",
"0| c #8325d8",
"0} c #4601b7",
"0~ c #5506c2",
"10 c #4401b4",
"11 c #3800a4",
"12 c #3e00ae",
"13 c #8729da",
"14 c #680fcc",
"15 c #4802b8",
"16 c #4601b6",
"17 c #6f14cf",
"18 c #650ecb",
"19 c #5505c1",
"1a c #630cc9",
"1b c #9336df",
"1c c #600ac8",
"1d c #7b1dd5",
"1e c #5c08c6",
"1f c #5807c3",
"1g c #5b08c6",
"1h c #5d09c7",
"1i c #5f0ac7",
"1j c #4000b1",
"1k c #610bc8",
"1l c #8526d9",
"1m c #600bc8",
"1n c #7014d0",
"1o c #8f31dd",
"1p c #6a10cd",
"1q c #9a3ee1",
"1r c #3700a0",
"1s c #6b11ce",
"1t c #8c2edc",
"1u c #8628da",
"1v c #620bc9",
"1w c #a24ae4",
"1x c #7116d1",
"1y c #8829da",
"1z c #791cd4",
"1A c #4c03bb",
"1B c #3d00ad",
"1C c #7619d3",
"1D c #9f45e3",
"000102030405060708090a0b0c0d0e0f",
"0g0h0i0g0j0k0l080m0n0o0p0q0r0s0a",
"0a0j0t0u0v0w0x0y0y030z0A0B0C0h0D",
"0E0y0f0r0F060z0u0o0G0H0I0J0K0L0J",
"0p030M0N0J080E0O0P0Q0R0c0m0S0G0T",
"0F0U0V080j0W0L0X0Y0S0Z0!0#0o0f0$",
"0z0%0&0(0)0*0+0%0E040,0P0-0.0/0:",
"0/0;0<0A0=0>0?0x0:0u0@0z0[0]0)0j",
"0^030_0b0Y0L0{0|0S0:0z0}0~0=0a0(",
"100d0x1112130+000P0.0m0y0a140.15",
"0f0e0T0S0416170|18190D041a1b0603",
"0D0I0P0P0&0u0j1c0W0g0/0{1d0.0g0j",
"1e040b1f0#1g0z110/0@0E1h0E0,0:1i",
"0K0.0a1j1k1l1m040j0.1n060m16001o",
"1p1q0{1r0z1s1t0%0%1u1v070u0Y1w1x",
"1y0N1z1A0t0}0%04070;0t1B1C1D0N0="
};
