/* XPM */
static char * image[] = {
"16 16 117 2",
"00 c #3a00a8",
"01 c #4401b4",
"02 c #3a00a7",
"03 c #5505c1",
"04 c #8527d9",
"05 c #7216d1",
"06 c #4801b8",
"07 c #3800a2",
"08 c #3b00aa",
"09 c #4601b6",
"0a c #5004be",
"0b c #5d09c6",
"0c c #7f21d7",
"0d c #7a1dd5",
"0e c #4501b5",
"0f c #8a2cdb",
"0g c #6b11ce",
"0h c #4300b3",
"0i c #3900a5",
"0j c #5305c0",
"0k c #4601b7",
"0l c #650ecb",
"0m c #4000b0",
"0n c #37009d",
"0o c #4c03bc",
"0p c #9a3fe1",
"0q c #660ecb",
"0r c #8728da",
"0s c #610bc9",
"0t c #5807c4",
"0u c #4a02ba",
"0v c #4f03bd",
"0w c #8729da",
"0x c #600bc8",
"0y c #8a2bdb",
"0z c #5e09c7",
"0A c #4000b1",
"0B c #3e00ae",
"0C c #ad59e7",
"0D c #9032dd",
"0E c #6a10cd",
"0F c #5a08c5",
"0G c #5405c1",
"0H c #5104bf",
"0I c #4902b9",
"0J c #5807c3",
"0K c #5c08c6",
"0L c #650dcb",
"0M c #600ac8",
"0N c #5907c4",
"0O c #5606c2",
"0P c #4b02bb",
"0Q c #3800a4",
"0R c #4200b3",
"0S c #4701b7",
"0T c #3800a3",
"0U c #4100b1",
"0V c #3c00ab",
"0W c #5e0ac7",
"0X c #630cca",
"0Y c #5706c3",
"0Z c #8123d7",
"0! c #5305c1",
"0# c #4300b4",
"0$ c #3d00ad",
"0% c #6f14d0",
"0& c #a147e3",
"0( c #771ad3",
"0) c #4e03bd",
"0* c #5505c2",
"0+ c #4802b8",
"0, c #5f0ac8",
"0- c #6910cd",
"0. c #7619d3",
"0/ c #670fcc",
"0: c #4c02bb",
"0; c #8325d8",
"0< c #7e20d6",
"0= c #6c12ce",
"0> c #8e31dd",
"0? c #680fcc",
"0@ c #3700a0",
"0[ c #7417d2",
"0] c #4d03bc",
"0^ c #7317d1",
"0_ c #4701b8",
"0{ c #9f45e3",
"0| c #3f00af",
"0} c #4b02ba",
"0~ c #5d09c7",
"10 c #37009f",
"11 c #3900a6",
"12 c #8426d9",
"13 c #4401b5",
"14 c #7519d3",
"15 c #640cca",
"16 c #781ad4",
"17 c #620cc9",
"18 c #5c09c6",
"19 c #5b08c5",
"1a c #7418d2",
"1b c #7a1cd4",
"1c c #640dca",
"1d c #8224d8",
"1e c #7518d2",
"1f c #6d12cf",
"1g c #8628d9",
"1h c #4e03bc",
"1i c #4100b2",
"1j c #3e00ad",
"1k c #3f00b0",
"1l c #37009e",
"1m c #4200b2",
"1n c #3c00ac",
"1o c #3b00a9",
"1p c #9438df",
"1q c #4a02b9",
"000102030405020607080309060a0b0c",
"0d0e0b0f0g0h0i0j0k0a0l0m0n0o0p0d",
"0q0g0r0s0t0u0v0w0x0j0y0z0A0B0g0C",
"0q0D0E0F0q0G0H030I020J0K0v0a060L",
"0M0N060o0O0I0P08090Q0h0G0R0P0S0m",
"060T080a0O0S0U0V0W0X0u0P0G0P0Y0B",
"0Y0V0N0Z0!0#0$0%0s0&0(0)0*0+0,0-",
"0X0j0.0/0V0i0:0;0<0=0>0<0e0i030;",
"0?090-0E000@060a0H0=0q0L0-0S0I0[",
"0A0@0]0^0M0$0Q0_0e0R0!0{0.0|0T0}",
"0?0m0R0)0~0K0A101106120%0u111305",
"140=0G0F0K0H150h0S161718190Y1a1b",
"011c0s0N0=0M0g1d0(1e0~1f0H0G0s0S",
"0@0S0K0X0N0}0u1g0;0]0j191h0O1i0n",
"1j0Q0e1f0=1k1l0h1m0i060Y0:061n13",
"0v1o0Q0H1p0?0U0u0B1q0d0W0m110j0q"
};
