/* XPM */
static char * image[] = {
"16 16 119 2",
"00 c #3e00ae",
"01 c #3700a0",
"02 c #4701b7",
"03 c #7518d2",
"04 c #620cc9",
"05 c #3a00a8",
"06 c #3800a4",
"07 c #37009d",
"08 c #4601b6",
"09 c #4a02ba",
"0a c #3900a7",
"0b c #8527d9",
"0c c #8325d8",
"0d c #771ad3",
"0e c #4601b7",
"0f c #3900a6",
"0g c #4e03bd",
"0h c #4f03be",
"0i c #5004be",
"0j c #650dcb",
"0k c #4501b6",
"0l c #4c03bc",
"0m c #5104bf",
"0n c #6d12cf",
"0o c #610bc8",
"0p c #3d00ac",
"0q c #4501b5",
"0r c #5e09c7",
"0s c #8d2fdc",
"0t c #6c12ce",
"0u c #4801b8",
"0v c #5807c3",
"0w c #5505c2",
"0x c #7417d2",
"0y c #6f14d0",
"0z c #5b08c5",
"0A c #3f00af",
"0B c #680fcc",
"0C c #4c02bb",
"0D c #781bd4",
"0E c #7116d1",
"0F c #7f21d7",
"0G c #7b1dd5",
"0H c #5a07c5",
"0I c #8a2cdb",
"0J c #8b2ddb",
"0K c #3c00ab",
"0L c #4a02b9",
"0M c #3900a5",
"0N c #3b00aa",
"0O c #4301b4",
"0P c #8022d7",
"0Q c #5c08c6",
"0R c #8426d9",
"0S c #5d09c7",
"0T c #3800a2",
"0U c #4100b1",
"0V c #5305c0",
"0W c #5907c4",
"0X c #670fcc",
"0Y c #5e0ac7",
"0Z c #3b00a9",
"0! c #6e13cf",
"0# c #8729da",
"0$ c #7015d0",
"0% c #8224d8",
"0& c #4f03bd",
"0( c #4300b3",
"0) c #7418d2",
"0* c #4902b9",
"0+ c #5405c1",
"0, c #5706c3",
"0- c #7d20d6",
"0. c #3c00ac",
"0/ c #650dca",
"0: c #ac57e7",
"0; c #5506c2",
"0< c #6d13cf",
"0= c #8123d8",
"0> c #4000b1",
"0? c #3f00b0",
"0@ c #610bc9",
"0[ c #6a10cd",
"0] c #5204c0",
"0^ c #4401b5",
"0_ c #4c03bb",
"0{ c #37009b",
"0| c #4d03bc",
"0} c #3700a1",
"0~ c #4b02bb",
"10 c #3800a3",
"11 c #5c09c6",
"12 c #7619d3",
"13 c #6b11ce",
"14 c #600ac8",
"15 c #8728da",
"16 c #4000b0",
"17 c #892bdb",
"18 c #600bc8",
"19 c #6a11cd",
"1a c #8e30dd",
"1b c #5f0ac8",
"1c c #5807c4",
"1d c #5a08c5",
"1e c #630cca",
"1f c #9235de",
"1g c #5d09c6",
"1h c #4401b4",
"1i c #7c1ed5",
"1j c #5806c3",
"1k c #7e21d6",
"1l c #7c1fd6",
"1m c #3a00a7",
"1n c #5204bf",
"1o c #4701b8",
"1p c #4100b2",
"1q c #620bc9",
"1r c #7014d0",
"1s c #8829da",
"00000102030405060708090a080b0c0d",
"0e0f0g0h0i0j0k0l0m0n0o0p0q0r0s0t",
"0u0v0w0h0x0y0m0z0A0g0B0C0z0D0E0F",
"0G0D0H0I0J0g0K0L0M0N0m000O0G0P0Q",
"0R0S0n0b020T0U0V0W0g0B0g01000X0t",
"0Q0K0Y0i0Z0O0!0W0#0j0$0%0g070U0&",
"0Z010z0m0(0W0Y0)0%0#040!0d0*000+",
"0,0v0-0Q0.080/0:040;0y0/0<0w0*0$",
"0q0*0=0r000>0S0R0A0e0?0@0I0[0A0i",
"0K0Z0]0g0*0^0U0_090{0|0$0E0e0}0e",
"0t0~0@0,050K0*10100002090@110i12",
"130]14150z0Z0u160N0q0u1317180L03",
"160>16191a1b0(1c1d0*1e1f1g0f0O0*",
"0Z0(0Z1h1i0D1j1k0t0V1l1j051m1n0>",
"0*000*161o0]1p0g0q0(0g000Z0W0+1n",
"0R16050e1q1r00100}020m080m1q1b1s"
};
