/* XPM */
static char * image[] = {
"16 16 128 2",
"00 c #882ada",
"01 c #5807c3",
"02 c #670ecc",
"03 c #4d03bc",
"04 c #3800a3",
"05 c #4300b3",
"06 c #6910cd",
"07 c #4701b7",
"08 c #5e09c7",
"09 c #3c00ab",
"0a c #4601b6",
"0b c #5b08c5",
"0c c #5a07c5",
"0d c #600ac8",
"0e c #4601b7",
"0f c #3800a4",
"0g c #5004be",
"0h c #37009d",
"0i c #4200b3",
"0j c #6b11ce",
"0k c #7d1fd6",
"0l c #4b02bb",
"0m c #5706c3",
"0n c #640dca",
"0o c #4000b1",
"0p c #680fcc",
"0q c #9337df",
"0r c #5a07c4",
"0s c #4100b2",
"0t c #3e00ad",
"0u c #4100b1",
"0v c #37009c",
"0w c #4501b5",
"0x c #620cc9",
"0y c #4902b9",
"0z c #3700a0",
"0A c #3d00ad",
"0B c #4c02bb",
"0C c #781bd4",
"0D c #7e20d6",
"0E c #5104bf",
"0F c #3a00a7",
"0G c #4801b8",
"0H c #660ecb",
"0I c #640cca",
"0J c #4b02ba",
"0K c #4a02ba",
"0L c #771ad3",
"0M c #5305c0",
"0N c #690fcd",
"0O c #6a11cd",
"0P c #4a02b9",
"0Q c #4c03bc",
"0R c #4f03be",
"0S c #7216d1",
"0T c #4f03bd",
"0U c #7b1dd5",
"0V c #5d09c7",
"0W c #8022d7",
"0X c #5d09c6",
"0Y c #5405c1",
"0Z c #630cca",
"0! c #7c1fd6",
"0# c #8325d8",
"0$ c #791bd4",
"0% c #4501b6",
"0& c #8324d8",
"0( c #892bdb",
"0) c #7115d1",
"0* c #8426d9",
"0+ c #3f00af",
"0, c #650dca",
"0- c #4802b8",
"0. c #3800a2",
"0/ c #8c2edc",
"0: c #9133de",
"0; c #3d00ac",
"0< c #5c09c6",
"0= c #6f14d0",
"0> c #3900a5",
"0? c #5305c1",
"0@ c #4301b4",
"0[ c #9437df",
"0] c #600bc8",
"0^ c #4701b8",
"0_ c #4401b5",
"0{ c #3c00aa",
"0| c #6c12ce",
"0} c #8224d8",
"0~ c #3900a6",
"10 c #3a00a8",
"11 c #7317d1",
"12 c #5505c2",
"13 c #3e00ae",
"14 c #4000b0",
"15 c #5e0ac7",
"16 c #37009f",
"17 c #7014d0",
"18 c #7c1ed5",
"19 c #973be0",
"1a c #7116d1",
"1b c #5a08c5",
"1c c #3700a1",
"1d c #7317d2",
"1e c #963ae0",
"1f c #7115d0",
"1g c #650dcb",
"1h c #9032dd",
"1i c #3b00aa",
"1j c #5204bf",
"1k c #4e03bd",
"1l c #3900a7",
"1m c #5c08c6",
"1n c #4401b4",
"1o c #6d12cf",
"1p c #5f0ac8",
"1q c #6d13cf",
"1r c #3a00a9",
"1s c #5606c2",
"1t c #993de1",
"1u c #7015d0",
"1v c #8d2fdc",
"1w c #620bc9",
"1x c #7f21d7",
"1y c #9234de",
"1z c #7619d3",
"1A c #8729da",
"1B c #9033de",
"00010203040506070806090a0b0c0d0e",
"0f010g0h0i0j0k0l0m0n0o0p0q0r0s0t",
"0u050v0w0x0x0y0z0A0B0f050C0D0E0F",
"0l0f0G0H0I0J0t0i0K0L0M0A0E0N0O0P",
"0Q0R0S0d0M0M0T0U0V000W0X0Y0b0Z0!",
"0m0#0$0y0%0M0&0(0m070S0)0c030a0*",
"0+0,0-0.0G0/0:0g0R0;0i0<0=0Y0>09",
"0.0?0@0i0j0[0]0^0f0_0h0{0|0}0g0~",
"0h0y0A100n0}0Z11121309140M150-16",
"03170K0>0@18191a0Z1b0K1c0u0H0p03",
"130X170E0_0w1d1e1f1g1c0F021h0m0a",
"0f1i080Y1j140A0d0m0t131b06080.0;",
"0m0{141k0g0m0.0~101l0Y0X1m1n0o08",
"0*1o0o0K1p1q0d1r100]0H1s0K0a0=1t",
"1u1v1w0>0A1g1x1b0<0}0m0t0y1u1y11",
"1d1z1A0E0.131s0A0G031c1i0k1B0b0m"
};
