/* XPM */
static char * image[] = {
"16 16 114 2",
"00 c #8527d9",
"01 c #7a1cd5",
"02 c #8f32dd",
"03 c #5305c0",
"04 c #3800a3",
"05 c #3d00ac",
"06 c #6910cd",
"07 c #5b08c5",
"08 c #6d12cf",
"09 c #640dca",
"0a c #4a02ba",
"0b c #600bc8",
"0c c #4a02b9",
"0d c #4902b9",
"0e c #3c00ab",
"0f c #791bd4",
"0g c #5104bf",
"0h c #4601b6",
"0i c #5d09c6",
"0j c #6c12ce",
"0k c #4301b4",
"0l c #5204bf",
"0m c #4701b7",
"0n c #4200b2",
"0o c #7317d2",
"0p c #9033dd",
"0q c #5807c3",
"0r c #3700a1",
"0s c #3a00a7",
"0t c #4601b7",
"0u c #4c02bb",
"0v c #3800a4",
"0w c #4701b8",
"0x c #3900a6",
"0y c #4501b6",
"0z c #5e09c7",
"0A c #37009e",
"0B c #3f00af",
"0C c #3800a2",
"0D c #4d03bc",
"0E c #4300b3",
"0F c #5f0ac8",
"0G c #4b02ba",
"0H c #7e20d6",
"0I c #5807c4",
"0J c #5004be",
"0K c #610bc9",
"0L c #5405c1",
"0M c #4100b1",
"0N c #5907c4",
"0O c #5f0ac7",
"0P c #7418d2",
"0Q c #600ac8",
"0R c #660ecb",
"0S c #5c08c6",
"0T c #6b11ce",
"0U c #5706c3",
"0V c #6a10cd",
"0W c #5606c2",
"0X c #8325d8",
"0Y c #781bd4",
"0Z c #5e0ac7",
"0! c #5a08c5",
"0# c #630cca",
"0$ c #4401b5",
"0% c #4802b8",
"0& c #5505c2",
"0( c #7417d2",
"0) c #6f14d0",
"0* c #4100b2",
"0+ c #3700a0",
"0, c #3e00ad",
"0- c #4e03bd",
"0. c #4801b8",
"0/ c #3b00a9",
"0: c #37009f",
"0; c #963ae0",
"0< c #3900a5",
"0= c #3b00aa",
"0> c #5c09c6",
"0? c #771ad3",
"0@ c #9c41e2",
"0[ c #4c03bc",
"0] c #3a00a8",
"0^ c #7619d3",
"0_ c #9538df",
"0{ c #7216d1",
"0| c #7f21d7",
"0} c #7015d0",
"0~ c #8a2cdb",
"10 c #7115d1",
"11 c #993ee1",
"12 c #8729da",
"13 c #6e13cf",
"14 c #4200b3",
"15 c #4401b4",
"16 c #4300b4",
"17 c #620bc9",
"18 c #4e03bc",
"19 c #3e00ae",
"1a c #3a00a9",
"1b c #4501b5",
"1c c #983ce0",
"1d c #6d13cf",
"1e c #5505c1",
"1f c #620cc9",
"1g c #680fcc",
"1h c #640cca",
"1i c #9235de",
"1j c #6a11cd",
"1k c #8f31dd",
"1l c #8426d9",
"1m c #7a1dd5",
"1n c #4000b0",
"000102030405060708090a090b0c0d0e",
"050f0g050h0i0j0k0l0m0n0o0p0q0r0s",
"0a0m0s0t0h030u0v0k0w0x0y0z090m0A",
"0B0C0a0D0E0F0q0G090H0I0J0K0L070M",
"050M0N0D0O0P0Q0R0S000T0U0V0F0W0S",
"0I0X0Y030S0Z0!0#0$0k0i0%0&0R0W0T",
"0u0(0h050g0)0Y0*0k0+0,0-0W0&0.0M",
"0/0a0:0M0Y0;0&0e0<0M0x0=0>0?0d0<",
"0s0-040n0o0@0>0L0R0.0[0*0]0D0-0x",
"0L0?0u05030^0_0{0{0|0S0+050}0~0L",
"0s0I0U0-030Q1011120#0y0B0W130N0e",
"0v140d150L0S0g130T160c0w0d07050]",
"170h180%190[0$0e1a0e1b0E0d0q0-0V",
"1c1d0L1e0.0I0D1a0x0u0u0d1f1g1h1i",
"0j111j0.0d0R1k0g0z0Y0g0g0S0#000?",
"0L1l0~0J0r051f0D0F0I0]0m0}1m071n"
};
