/* XPM */
static char * image[] = {
"16 16 119 2",
"00 c #5305c0",
"01 c #3f00af",
"02 c #3b00a9",
"03 c #4000b0",
"04 c #4401b4",
"05 c #5004be",
"06 c #4501b6",
"07 c #3800a2",
"08 c #3e00ae",
"09 c #3900a6",
"0a c #4e03bd",
"0b c #8022d7",
"0c c #9234de",
"0d c #5c08c6",
"0e c #3700a0",
"0f c #4802b8",
"0g c #3c00ab",
"0h c #6e13cf",
"0i c #6c12ce",
"0j c #4a02b9",
"0k c #5405c1",
"0l c #7519d2",
"0m c #5b08c5",
"0n c #4c02bb",
"0o c #6b11ce",
"0p c #640dca",
"0q c #620bc9",
"0r c #630cca",
"0s c #3a00a8",
"0t c #3900a5",
"0u c #771ad3",
"0v c #973be0",
"0w c #4c03bc",
"0x c #4f03be",
"0y c #4300b3",
"0z c #3e00ad",
"0A c #7116d1",
"0B c #8c2fdc",
"0C c #5a07c5",
"0D c #5204bf",
"0E c #610bc9",
"0F c #4701b7",
"0G c #882ada",
"0H c #7d1fd6",
"0I c #37009d",
"0J c #4a02ba",
"0K c #4401b5",
"0L c #7c1ed5",
"0M c #8c2edc",
"0N c #5104bf",
"0O c #8728da",
"0P c #5204c0",
"0Q c #7c1ed6",
"0R c #963ae0",
"0S c #3700a1",
"0T c #5d09c6",
"0U c #8e31dd",
"0V c #4f03bd",
"0W c #4100b1",
"0X c #7e20d6",
"0Y c #8527d9",
"0Z c #5706c3",
"0! c #7417d2",
"0# c #37009f",
"0$ c #4100b2",
"0% c #9438df",
"0& c #8628da",
"0( c #983ce0",
"0) c #8a2cdb",
"0* c #892bdb",
"0+ c #6910cd",
"0, c #7a1dd5",
"0- c #8123d8",
"0. c #5907c4",
"0/ c #4801b8",
"0: c #8224d8",
"0; c #5606c2",
"0< c #5807c4",
"0= c #5e0ac7",
"0> c #6d12cf",
"0? c #4601b7",
"0@ c #4200b3",
"0[ c #6f14d0",
"0] c #4b02bb",
"0^ c #7619d3",
"0_ c #a34be4",
"0{ c #7216d1",
"0| c #3d00ac",
"0} c #660ecb",
"0~ c #630cc9",
"10 c #4c03bb",
"11 c #5807c3",
"12 c #3d00ad",
"13 c #3900a7",
"14 c #650dcb",
"15 c #4902b9",
"16 c #4301b4",
"17 c #882adb",
"18 c #5e09c7",
"19 c #7519d3",
"1a c #3800a4",
"1b c #4200b2",
"1c c #3a00a7",
"1d c #9639e0",
"1e c #5f0ac8",
"1f c #3c00aa",
"1g c #4501b5",
"1h c #5d09c7",
"1i c #600ac8",
"1j c #9235de",
"1k c #600bc8",
"1l c #670ecc",
"1m c #6a10cd",
"1n c #5004bf",
"1o c #3700a2",
"1p c #8123d7",
"1q c #4601b6",
"1r c #680fcc",
"1s c #7f21d7",
"0001020304050607030008090a0b0c0d",
"0e080f0g040h0i0j0k0l0m0n0o0p0q0r",
"0s040t060u0v0w02090x0y0z0A0B0C0D",
"0E0F0j0G0H0a0I010s0J0J070K0L0M0N",
"0O0P0Q0R0P0S0j0H0d0T0U0V020W0X0Y",
"0C0Z0!060#0$0%0&0(0p0)0*0k0t0$0+",
"0s0K0P0S040,0-0o0h0.0/0:0*0;0#06",
"0z0P0h0K0<0=0>0b0$0/0?0@0[0&0/0N",
"0t050;0]0D000^0_030t070n0L0{0s03",
"0|060P020|0}0i0~0N0t0/10110;120J",
"0k0p0O0m130s1415160a0t010^170V18",
"1501190R0k1a080a1b021c0p1d1e1f15",
"1g020t0}0)1h090@061c1i1j0.0s070P",
"0P0.0S020u1j0E0w0a1k0(0q1a080p0Z",
"1l0}0a1c0|0+1m0P1n0r0m1o1c0+1p0r",
"0M11161q1b050@0S0e0F1212140Y1r1s"
};
