/* XPM */
static char * image[] = {
"16 16 115 2",
"00 c #892bdb",
"01 c #6c12ce",
"02 c #690fcd",
"03 c #4c02bb",
"04 c #3800a4",
"05 c #3f00af",
"06 c #620cc9",
"07 c #5204c0",
"08 c #5d09c6",
"09 c #5807c3",
"0a c #4d03bc",
"0b c #6910cd",
"0c c #5907c4",
"0d c #4401b4",
"0e c #3c00ab",
"0f c #630cca",
"0g c #4801b8",
"0h c #3a00a8",
"0i c #3c00ac",
"0j c #7f21d7",
"0k c #4100b2",
"0l c #6e13cf",
"0m c #3a00a7",
"0n c #3d00ad",
"0o c #3700a0",
"0p c #4301b4",
"0q c #5c09c6",
"0r c #37009f",
"0s c #4902b9",
"0t c #4401b5",
"0u c #7418d2",
"0v c #882ada",
"0w c #4c03bb",
"0x c #37009c",
"0y c #4200b3",
"0z c #5506c2",
"0A c #5807c4",
"0B c #5b08c5",
"0C c #4501b5",
"0D c #5305c0",
"0E c #771ad3",
"0F c #5305c1",
"0G c #4f03be",
"0H c #610bc8",
"0I c #6a11cd",
"0J c #4200b2",
"0K c #4e03bd",
"0L c #5706c3",
"0M c #5c08c6",
"0N c #5f0ac8",
"0O c #8527d9",
"0P c #7619d3",
"0Q c #5f0ac7",
"0R c #5a07c4",
"0S c #680fcc",
"0T c #7a1cd4",
"0U c #7d1fd6",
"0V c #781bd4",
"0W c #5004be",
"0X c #4b02ba",
"0Y c #5a08c5",
"0Z c #7c1ed5",
"0! c #8426d9",
"0# c #4701b7",
"0$ c #5606c2",
"0% c #3e00ad",
"0& c #670fcc",
"0( c #4300b3",
"0) c #4f03bd",
"0* c #8628d9",
"0+ c #3900a7",
"0, c #5e09c7",
"0- c #3e00ae",
"0. c #4100b1",
"0/ c #8123d8",
"0: c #9134de",
"0; c #600bc8",
"0< c #3800a3",
"0= c #3a00a9",
"0> c #3b00a9",
"0? c #963ae0",
"0@ c #5204bf",
"0[ c #4a02b9",
"0] c #5505c1",
"0^ c #6f14d0",
"0_ c #4601b6",
"0{ c #7a1cd5",
"0| c #9033dd",
"0} c #6b11ce",
"0~ c #3900a5",
"10 c #6a10cd",
"11 c #7216d1",
"12 c #a249e4",
"13 c #7b1dd5",
"14 c #3b00aa",
"15 c #3d00ac",
"16 c #660ecb",
"17 c #5104bf",
"18 c #5405c1",
"19 c #4a02ba",
"1a c #5e0ac7",
"1b c #9d42e2",
"1c c #7417d2",
"1d c #a54ee5",
"1e c #a44ce4",
"1f c #610bc9",
"1g c #9437df",
"1h c #8a2cdb",
"1i c #4b02bb",
"1j c #6d12cf",
"1k c #650dcb",
"1l c #7519d3",
"1m c #8d2fdc",
"1n c #3800a2",
"1o c #5d09c7",
"00010203040506070809050a0b070c0d",
"0e0f0g0h0i010j0k0309050l00080m0n",
"0k0n0o0p090q0a0r0n0s040t0u0v0w0x",
"0p0o0y0z0A0B0C0a0D0E0F0t0G0H0I0J",
"0K0K0E0L0M080c0j0N0O0P0Q0L0R0S0T",
"0L0U0V0W0X0Y0Z0!0K0#010B0$0W0K0V",
"0%0&0(0o0)0*0O0K0s0+0n060,0D0-0.",
"0o0s0n0e0/0:0;0t0h0.0<0=0S0E0#04",
"0>0s0h0h0U0?0B0B0@0p0C0p0[0]0304",
"0X0^0K040_0{0|0}0E0S0W0~0n0E010)",
"0-10110$0#0#0E121310141516000D05",
"0~0%0W1718190(011a0+0d0X0$0L0m0~",
"0,0e0(18170W0-140e0h0K0F170G0k16",
"1b0}190#0$1c0G0~0<17100$180$0^1d",
"0l1e0;150k1f1g0]0A1h0Y0J1i1j0:0^",
"1k1l1m0g1n0e0S0_0g0K0~05161m1o19"
};
