/* XPM */
static char * image[] = {
"16 16 121 2",
"00 c #5104bf",
"01 c #4000b0",
"02 c #3d00ac",
"03 c #4200b2",
"04 c #5405c1",
"05 c #5807c3",
"06 c #4701b7",
"07 c #3700a0",
"08 c #3800a3",
"09 c #37009f",
"0a c #983ce0",
"0b c #8123d8",
"0c c #5e0ac7",
"0d c #3c00ab",
"0e c #3b00aa",
"0f c #4902b9",
"0g c #7115d1",
"0h c #610bc9",
"0i c #4f03be",
"0j c #8022d7",
"0k c #630cc9",
"0l c #4b02bb",
"0m c #5806c3",
"0n c #5f0ac8",
"0o c #6e13cf",
"0p c #6b11ce",
"0q c #3c00aa",
"0r c #4601b6",
"0s c #4100b1",
"0t c #7e20d6",
"0u c #9539df",
"0v c #4000b1",
"0w c #3900a6",
"0x c #5204c0",
"0y c #4b02ba",
"0z c #6f14d0",
"0A c #8224d8",
"0B c #600ac8",
"0C c #4e03bd",
"0D c #5b08c5",
"0E c #4801b8",
"0F c #8122d7",
"0G c #8527d9",
"0H c #4d03bc",
"0I c #37009d",
"0J c #3f00b0",
"0K c #3800a4",
"0L c #4100b2",
"0M c #8628da",
"0N c #a148e3",
"0O c #5d09c7",
"0P c #5505c1",
"0Q c #8627d9",
"0R c #9234de",
"0S c #4601b7",
"0T c #6c12ce",
"0U c #5c09c6",
"0V c #892adb",
"0W c #892bdb",
"0X c #8c2edc",
"0Y c #5706c3",
"0Z c #4a02b9",
"0! c #4501b5",
"0# c #37009c",
"0$ c #9639df",
"0% c #640dca",
"0& c #7a1cd4",
"0( c #a44ce5",
"0) c #3700a1",
"0* c #4300b4",
"0+ c #3f00af",
"0, c #5305c0",
"0- c #3d00ad",
"0. c #781bd4",
"0/ c #791bd4",
"0: c #7216d1",
"0; c #7014d0",
"0< c #8b2ddb",
"0= c #4301b4",
"0> c #4300b3",
"0? c #6d13cf",
"0@ c #5204bf",
"0[ c #5a08c5",
"0] c #630cca",
"0^ c #9134de",
"0_ c #5004be",
"0{ c #4a02ba",
"0| c #7015d0",
"0} c #3b00a9",
"0~ c #660ecb",
"10 c #ab56e7",
"11 c #3e00ad",
"12 c #3e00ae",
"13 c #3800a2",
"14 c #7f21d7",
"15 c #7418d2",
"16 c #4501b6",
"17 c #3c00ac",
"18 c #5907c4",
"19 c #5606c2",
"1a c #4c02bb",
"1b c #4401b4",
"1c c #650dcb",
"1d c #620bc9",
"1e c #7317d2",
"1f c #791cd4",
"1g c #761ad3",
"1h c #8829da",
"1i c #9538df",
"1j c #6910cd",
"1k c #9e44e2",
"1l c #5e09c7",
"1m c #8f32dd",
"1n c #5c08c6",
"1o c #a047e3",
"1p c #3a00a7",
"1q c #3a00a9",
"1r c #4401b5",
"1s c #680fcc",
"1t c #7619d3",
"1u c #9639e0",
"000102030405060708040309040a0b0c",
"0d0e0f0d060g0h000i0j0k0l0m0n0o0p",
"0q0r0d0s0t0u060v0w0x0y0v0z0A0B0C",
"0B0D0E0F0G0H0I0J0K0r0r070L0M0N0O",
"0M0P0Q0R0S0K010T0k0U0V0x090r0W0X",
"0Y0Z0p0!0#0E0t0M0$0%0&0(0l0)0*0o",
"070+0,0-0s0.0/0:0;0:0H0b0<0f090=",
"0>040?0i0@0[0]0^000C0_0{0|0z060[",
"0}0E0~0f0=0C0~101112130Y14150J0+",
"0>160x17120h1818190w0{0@191a0d1b",
"1c1d140x070e0B1b0}0l17011e1f050g",
"0H011g1h0[0)0+0r0+12020|1i0D0v1a",
"0y0K0}1j1k1l0e0{0l111c1m1n070d0H",
"0>0f080}0T0a1804181c1o0[131p0n0x",
"0,0U0r0)120p0m0i0f1l0B091q0?0j0D",
"0^0E120!0f0n0E0K080!1r0s1s1t0z1u"
};
