/* XPM */
static char * image[] = {
"16 16 119 2",
"00 c #680fcc",
"01 c #8123d7",
"02 c #a148e3",
"03 c #610bc9",
"04 c #4100b2",
"05 c #4000b0",
"06 c #6c12ce",
"07 c #7a1dd5",
"08 c #7a1cd5",
"09 c #4a02ba",
"0a c #5706c3",
"0b c #892bdb",
"0c c #5d09c6",
"0d c #3b00a9",
"0e c #3b00aa",
"0f c #4200b2",
"0g c #5f0ac8",
"0h c #9539df",
"0i c #5e0ac7",
"0j c #5c09c6",
"0k c #5606c2",
"0l c #4a02b9",
"0m c #5104bf",
"0n c #4200b3",
"0o c #4c02bb",
"0p c #3800a4",
"0q c #650dcb",
"0r c #7317d1",
"0s c #4701b7",
"0t c #3900a5",
"0u c #4300b3",
"0v c #620cc9",
"0w c #5305c0",
"0x c #5f0ac7",
"0y c #3f00b0",
"0z c #3a00a7",
"0A c #4601b6",
"0B c #5b08c5",
"0C c #4902b9",
"0D c #4100b1",
"0E c #5405c1",
"0F c #4301b4",
"0G c #3d00ac",
"0H c #5004be",
"0I c #3a00a9",
"0J c #3a00a8",
"0K c #640dca",
"0L c #8a2cdb",
"0M c #5907c4",
"0N c #6f14d0",
"0O c #882ada",
"0P c #6b11ce",
"0Q c #3f00af",
"0R c #3d00ad",
"0S c #4801b8",
"0T c #37009f",
"0U c #4401b4",
"0V c #3900a6",
"0W c #630cca",
"0X c #9f45e3",
"0Y c #6a11cd",
"0Z c #4b02ba",
"0! c #4501b6",
"0# c #5d09c7",
"0$ c #9c41e2",
"0% c #6d13cf",
"0& c #4000b1",
"0( c #7317d2",
"0) c #4e03bd",
"0* c #9639df",
"0+ c #781bd4",
"0, c #4f03bd",
"0- c #3700a1",
"0. c #5a08c5",
"0/ c #7518d2",
"0: c #4d03bc",
"0; c #5505c1",
"0< c #4c03bb",
"0= c #3e00ae",
"0> c #3c00ab",
"0? c #5204bf",
"0@ c #4501b5",
"0[ c #7418d2",
"0] c #4f03be",
"0^ c #5506c2",
"0_ c #7216d1",
"0{ c #6c11ce",
"0| c #771ad3",
"0} c #791cd4",
"0~ c #4601b7",
"10 c #37009c",
"11 c #670fcc",
"12 c #7015d0",
"13 c #5a07c5",
"14 c #670ecc",
"15 c #5a07c4",
"16 c #ab56e7",
"17 c #6910cd",
"18 c #8426d9",
"19 c #3c00aa",
"1a c #5505c2",
"1b c #6d12cf",
"1c c #8729da",
"1d c #a046e3",
"1e c #7b1dd5",
"1f c #660ecb",
"1g c #7619d3",
"1h c #5e09c7",
"1i c #600ac8",
"1j c #37009e",
"1k c #600bc8",
"1l c #3900a7",
"1m c #3800a3",
"1n c #8425d9",
"1o c #6e13cf",
"1p c #8325d8",
"1q c #9437df",
"1r c #640cca",
"1s c #4e03bc",
"000102030405060708090a0b0c0d0e0f",
"0g0h0i0j0k0l0m0n0o0p0f0q0r0s0t0u",
"0v0w0x0v0y0z0c0A0B0C0D0j0E0F0o0u",
"0G0n0H0I0J0K0L0M080N0m0O0P0Q0R0S",
"0T0U0A0V0W0X0Y0Z0!0K0A0#0$0%0&0u",
"0C0(0)0E0*0+0A0,0-0Q0u0e0.0b000,",
"0P0/0:0B0P0;0<0&0=0V0H0>0>0?060m",
"0@090-0A0[000F0p0:0C0f0]040s0^0d",
"0)0s0p0A0_0{090J0|0q0}0~100R110C",
"0v120s131415120k0316170u0@0#180.",
"191a0=0H011b001c1d1e1f0.0f0A0w0z",
"0>0M0D0V0)0O0Y0q1g1h0W0=0V0s0c0=",
"1i1f0_0&0-0w0W0@0s0m0C1j0o0|0K1k",
"0b0v1e0Y0U0J0E1l0J0o1m0Z1n0b150N",
"0v0|1o0_0;0C0g0B1a0m0A0|1p0]0k0M",
"0Q0/1q1r0F050K1e0r0E1s0x0B0m0!1m"
};
