/* XPM */
static char * image[] = {
"16 16 132 2",
"00 c #4000b0",
"01 c #5907c4",
"02 c #6910cd",
"03 c #6e13cf",
"04 c #680fcc",
"05 c #5204c0",
"06 c #4b02bb",
"07 c #6a11cd",
"08 c #4f03bd",
"09 c #3b00aa",
"0a c #6b11ce",
"0b c #7015d0",
"0c c #4501b5",
"0d c #3e00ae",
"0e c #5b08c5",
"0f c #a046e3",
"0g c #7c1fd6",
"0h c #6d13cf",
"0i c #8d2fdc",
"0j c #660ecb",
"0k c #3c00ab",
"0l c #3a00a9",
"0m c #4a02b9",
"0n c #4b02ba",
"0o c #3a00a8",
"0p c #5104bf",
"0q c #4d03bc",
"0r c #4c02bb",
"0s c #600ac8",
"0t c #5606c2",
"0u c #9032dd",
"0v c #781bd4",
"0w c #a34be4",
"0x c #7014d0",
"0y c #3d00ad",
"0z c #3800a4",
"0A c #7619d3",
"0B c #7418d2",
"0C c #6f14cf",
"0D c #3d00ac",
"0E c #5706c3",
"0F c #7b1ed5",
"0G c #771ad3",
"0H c #6a10cd",
"0I c #4100b1",
"0J c #3f00b0",
"0K c #610bc9",
"0L c #8426d9",
"0M c #5d09c6",
"0N c #670fcc",
"0O c #4300b3",
"0P c #600bc8",
"0Q c #892bdb",
"0R c #3900a6",
"0S c #3e00ad",
"0T c #3800a2",
"0U c #5f0ac7",
"0V c #5f0ac8",
"0W c #3f00af",
"0X c #3c00aa",
"0Y c #4f03be",
"0Z c #7317d2",
"0! c #5c09c6",
"0# c #3700a1",
"0$ c #4701b7",
"0% c #4200b3",
"0& c #8022d7",
"0( c #5c08c6",
"0) c #7b1dd5",
"0* c #9133de",
"0+ c #7115d0",
"0, c #3800a3",
"0- c #5d09c7",
"0. c #670ecc",
"0/ c #3b00a9",
"0: c #5a07c4",
"0; c #8527d9",
"0< c #6f14d0",
"0= c #4301b4",
"0> c #4601b7",
"0? c #4401b4",
"0@ c #4501b6",
"0[ c #7a1dd5",
"0] c #7417d2",
"0^ c #37009f",
"0_ c #5806c3",
"0{ c #5e0ac7",
"0| c #7317d1",
"0} c #5004be",
"0~ c #630cca",
"10 c #4e03bc",
"11 c #4000b1",
"12 c #640dca",
"13 c #983ce0",
"14 c #4401b5",
"15 c #5e09c7",
"16 c #4200b2",
"17 c #8a2cdb",
"18 c #3c00ac",
"19 c #4902b9",
"1a c #8324d8",
"1b c #5505c1",
"1c c #37009c",
"1d c #5204bf",
"1e c #7519d3",
"1f c #5505c2",
"1g c #5506c2",
"1h c #993de1",
"1i c #7e20d6",
"1j c #7216d1",
"1k c #3a00a7",
"1l c #9639e0",
"1m c #8123d8",
"1n c #4a02ba",
"1o c #8729da",
"1p c #9336df",
"1q c #8628da",
"1r c #8224d8",
"1s c #5807c3",
"1t c #4802b8",
"1u c #7518d2",
"1v c #4801b8",
"1w c #4701b8",
"1x c #963ae0",
"1y c #8123d7",
"1z c #8c2fdc",
"1A c #6c12ce",
"1B c #3900a5",
"1C c #5305c1",
"1D c #5405c1",
"1E c #761ad3",
"1F c #4601b6",
"000102030405060708090a0b0c0d0d0e",
"0f0g0h0i0j0k0l0m0n0o0p0q0o0r0s0t",
"0u0v0w0x0y0z0t0A0B060C0A0D0z0E0F",
"080G0H0I0J0K0L0M0N0O0P0Q0N0J0R05",
"0S0p0T0D0U0B0V0R0W0X0R0Y0Z0!0o0#",
"0$0%0R0e0&0(0z0k090t0o0k0q0)0U0z",
"0x0e0t0*0+0o0,0n0n0-0.000/0:0;0a",
"0<0=080U0>0y0?0@030K0[0]0y0^0_0{",
"0|0}0p0~10110I0z1213130K1411150G",
"01160>170&0y18190q0H0~1a0!191b0t",
"0c0y1c1d0;1e16141f1g1h1i0d0^0$0>",
"021j0%1k0Y1l0L0M0M1m0;0$0o1n1o02",
"0t0i0g0?110Y1p0A0G1o0$0d0n0v1q0r",
"0@1n1q1r0=1k190K1s0%0R1t0B1u1v0W",
"1w000t1x1y0k090p0O0z0c1z1A0@1B0?",
"0,081C041e0M1D0G0.191E1j0W0z1F0d"
};
