/* XPM */
static char * image[] = {
"16 16 126 2",
"00 c #4b02bb",
"01 c #6b11ce",
"02 c #7316d1",
"03 c #650ecb",
"04 c #610bc9",
"05 c #4701b7",
"06 c #4801b8",
"07 c #640dca",
"08 c #5104bf",
"09 c #3e00ad",
"0a c #620cc9",
"0b c #8224d8",
"0c c #3800a4",
"0d c #3c00ab",
"0e c #5505c1",
"0f c #9d43e2",
"0g c #8729da",
"0h c #660ecb",
"0i c #8a2cdb",
"0j c #7518d2",
"0k c #3a00a7",
"0l c #3b00a9",
"0m c #5004bf",
"0n c #4200b2",
"0o c #5004be",
"0p c #4a02b9",
"0q c #4100b2",
"0r c #4e03bc",
"0s c #5405c1",
"0t c #7a1dd5",
"0u c #9c42e2",
"0v c #6910cd",
"0w c #4000b0",
"0x c #3900a5",
"0y c #771ad3",
"0z c #781bd4",
"0A c #5506c2",
"0B c #650dcb",
"0C c #6e13cf",
"0D c #3700a1",
"0E c #4f03be",
"0F c #6f14d0",
"0G c #4d03bc",
"0H c #6c12ce",
"0I c #3d00ad",
"0J c #5706c3",
"0K c #670fcc",
"0L c #7216d1",
"0M c #4802b8",
"0N c #5806c3",
"0O c #9e44e2",
"0P c #3e00ae",
"0Q c #5d09c6",
"0R c #3b00aa",
"0S c #4e03bd",
"0T c #3800a3",
"0U c #3800a2",
"0V c #8526d9",
"0W c #3900a6",
"0X c #4100b1",
"0Y c #7d1fd6",
"0Z c #4501b5",
"0! c #3d00ac",
"0# c #620bc9",
"0$ c #973ae0",
"0% c #630cca",
"0& c #4902b9",
"0( c #37009f",
"0) c #7317d1",
"0* c #7c1ed6",
"0+ c #3a00a8",
"0, c #5204c0",
"0- c #882ada",
"0. c #5b08c5",
"0/ c #5e0ac7",
"0: c #4601b6",
"0; c #5e09c7",
"0< c #3f00af",
"0= c #610bc8",
"0> c #6f14cf",
"0? c #5807c3",
"0@ c #7115d1",
"0[ c #4401b5",
"0] c #5b08c6",
"0^ c #9a3ee1",
"0_ c #5a08c5",
"0{ c #4401b4",
"0| c #8325d8",
"0} c #7c1fd6",
"0~ c #5305c0",
"10 c #7418d2",
"11 c #7115d0",
"12 c #5d09c7",
"13 c #4601b7",
"14 c #37009e",
"15 c #8527d9",
"16 c #4c02bb",
"17 c #983ce0",
"18 c #8728da",
"19 c #4200b3",
"1a c #5807c4",
"1b c #3c00ac",
"1c c #973be0",
"1d c #9134de",
"1e c #7f21d7",
"1f c #5606c2",
"1g c #8325d9",
"1h c #8b2ddb",
"1i c #7015d0",
"1j c #8627d9",
"1k c #4a02ba",
"1l c #8628d9",
"1m c #9133de",
"1n c #37009d",
"1o c #4300b3",
"1p c #791cd4",
"1q c #892bdb",
"1r c #3f00b0",
"1s c #a64fe5",
"1t c #7b1ed5",
"1u c #4000b1",
"1v c #8426d9",
"1w c #6c11ce",
"1x c #5003be",
"1y c #7b1dd5",
"1z c #7317d2",
"000102030405060708090a0b080c0d0e",
"0f0g0h0i0j0k0l0m0n0c0o0p0q060r0s",
"0t010u0v0w0x0s0y0z0A0B0C0n0D0E0F",
"0G030H0I0x0J0i0K0L0M0N0O0B0P0c0Q",
"0R0S0T0U030V070W0n0X0W0J0Y0h0P0x",
"0w0Z0!0#0$0%0k0c0W0&0k0(080g0)0W",
"0*0B0o0i020+0+0&0p0,0Q0w0W0s0-0.",
"0/0:0X0;0S0<050P0C0=0>010R0+000?",
"0@0E0[0]0G0&0[0T0@0i0^0s0P0+0v0a",
"0_0{0o0|0}0w0d000~100C1112050A08",
"130w140G150-0G160C0a17180n0W0519",
"1a110n1b1a1c1d0s071d1e0:0c0G0-1f",
"0s0i1g0Z0!0p1h0L1i1j1k0U0E1l1m0,",
"0&000i0|0n1n0S0E0J1o0c0G1p1q131r",
"050[0/1s1t1u0I0E0G0k0:1v1i190T1o",
"0(0e0=0v1w0s1x1y0v0S021z1u0k0n1u"
};
