/* XPM */
static char * image[] = {
"16 16 120 2",
"00 c #5c08c6",
"01 c #4c02bb",
"02 c #4501b5",
"03 c #4300b3",
"04 c #5606c2",
"05 c #4701b8",
"06 c #3900a5",
"07 c #3f00b0",
"08 c #5f0ac7",
"09 c #3d00ac",
"0a c #3b00a9",
"0b c #8729da",
"0c c #771ad3",
"0d c #37009e",
"0e c #4100b1",
"0f c #4401b5",
"0g c #3700a1",
"0h c #4401b4",
"0i c #781bd4",
"0j c #6910cd",
"0k c #4b02bb",
"0l c #4a02ba",
"0m c #7216d1",
"0n c #4e03bd",
"0o c #4d03bc",
"0p c #660ecb",
"0q c #610bc9",
"0r c #5907c4",
"0s c #3a00a8",
"0t c #3800a4",
"0u c #4301b4",
"0v c #8628da",
"0w c #9336de",
"0x c #3a00a7",
"0y c #3900a6",
"0z c #5104bf",
"0A c #3f00af",
"0B c #7015d0",
"0C c #a44ce4",
"0D c #4000b0",
"0E c #4902b9",
"0F c #882ada",
"0G c #7f21d7",
"0H c #37009d",
"0I c #5505c1",
"0J c #3800a3",
"0K c #7619d3",
"0L c #8f31dd",
"0M c #781ad4",
"0N c #4f03be",
"0O c #9337df",
"0P c #4f03bd",
"0Q c #8426d9",
"0R c #6b11ce",
"0S c #983de0",
"0T c #3c00ab",
"0U c #8527d9",
"0V c #5e09c7",
"0W c #7e20d6",
"0X c #4801b8",
"0Y c #4802b8",
"0Z c #8325d8",
"0! c #8022d7",
"0# c #8123d8",
"0$ c #5b08c5",
"0% c #9235de",
"0& c #983ce0",
"0( c #7c1ed5",
"0) c #9336df",
"0* c #5d09c7",
"0+ c #650dcb",
"0, c #5305c0",
"0- c #3e00ae",
"0. c #5d09c6",
"0/ c #5c09c6",
"0: c #7317d2",
"0; c #3d00ad",
"0< c #4200b3",
"0= c #37009f",
"0> c #680fcc",
"0? c #9437df",
"0@ c #7014d0",
"0[ c #6c12ce",
"0] c #4100b2",
"0^ c #7417d2",
"0_ c #4701b7",
"0{ c #630cca",
"0| c #640dca",
"0} c #973ae0",
"0~ c #3e00ad",
"10 c #5f0ac8",
"11 c #5807c3",
"12 c #670fcc",
"13 c #9133de",
"14 c #5506c2",
"15 c #a249e4",
"16 c #640cca",
"17 c #3800a2",
"18 c #6d12cf",
"19 c #7b1dd5",
"1a c #600bc8",
"1b c #3a00a9",
"1c c #4b02ba",
"1d c #5706c3",
"1e c #8f32dd",
"1f c #5a07c4",
"1g c #8627d9",
"1h c #6a10cd",
"1i c #3c00aa",
"1j c #5004be",
"1k c #6f14d0",
"1l c #5204c0",
"1m c #7418d2",
"1n c #9134de",
"1o c #9c41e2",
"1p c #4601b7",
"1q c #4200b2",
"1r c #5305c1",
"1s c #963ae0",
"1t c #8728da",
"00010203030405060708090a000b0c01",
"0d0e0f0g0h0i0j0k0l0m0n0o0p0q0r04",
"0s030t0u0v0w0o0x0y0z0A070B0C000D",
"040E0o0F0G0l0H0A0a0I0n0J0u0K0L0n",
"0M0N0L0O0P0J0l0Q0j0R0S0P0T020i0U",
"080V0W0X0g0Y0Z0!0#0$0%0&0z0T0u0G",
"0a050l0y0D0(0)0*0+0z0l0U0v0,0J0e",
"0-0r0.0Y0/0K0:0W0;0X0<0u0c0b0N0P",
"0=0z0z070N0>0+0?0u0T0y0N0@0[0a0s",
"0]0o0o0s0-0^0K0B0z0T0_0u0E0{0f0l",
"0V0|0}0$0J0~10110X0,0J0;12130.14",
"0<0T0m0(0z0t060l0k0s0s0m15160s0f",
"0z170T18191a0y0u090t180U0.1b0g1c",
"1d0.0t0T0+1e1f0E0X0+1g0V0-070q0>",
"001h010H1i0R181j011k1l0t0A1m1n0>",
"1o0V011p1q0k0_0t0s1r0-091k1s0|1t"
};
