/* XPM */
static char * image[] = {
"16 16 119 2",
"00 c #4902b9",
"01 c #3c00ab",
"02 c #37009d",
"03 c #4200b2",
"04 c #650dcb",
"05 c #6d12cf",
"06 c #3e00ae",
"07 c #3900a5",
"08 c #37009f",
"09 c #4e03bd",
"0a c #4501b6",
"0b c #3800a2",
"0c c #4d03bc",
"0d c #9336de",
"0e c #8022d7",
"0f c #6e13cf",
"0g c #4000b0",
"0h c #3800a4",
"0i c #4501b5",
"0j c #4300b4",
"0k c #5506c2",
"0l c #640dca",
"0m c #4a02ba",
"0n c #5004be",
"0o c #4f03bd",
"0p c #7418d2",
"0q c #6f14cf",
"0r c #3f00af",
"0s c #4b02bb",
"0t c #5d09c6",
"0u c #9032dd",
"0v c #680fcc",
"0w c #5a07c4",
"0x c #8224d8",
"0y c #8729da",
"0z c #5104bf",
"0A c #4802b8",
"0B c #5c08c6",
"0C c #7c1ed5",
"0D c #6b11ce",
"0E c #7116d1",
"0F c #6c11ce",
"0G c #630cca",
"0H c #882adb",
"0I c #8d2fdc",
"0J c #4b02ba",
"0K c #4401b4",
"0L c #3900a6",
"0M c #4100b1",
"0N c #3c00aa",
"0O c #7e20d6",
"0P c #8c2edc",
"0Q c #5f0ac8",
"0R c #7015d0",
"0S c #892bdb",
"0T c #3800a3",
"0U c #4300b3",
"0V c #5f0ac7",
"0W c #3d00ad",
"0X c #6f14d0",
"0Y c #5b08c5",
"0Z c #4200b3",
"0! c #3e00ad",
"0# c #7619d3",
"0$ c #8e30dd",
"0% c #9337df",
"0& c #5204bf",
"0( c #610bc9",
"0) c #3a00a7",
"0* c #6d13cf",
"0+ c #7317d2",
"0, c #7216d1",
"0- c #8123d8",
"0. c #5706c3",
"0/ c #781bd4",
"0: c #8527d9",
"0; c #4701b8",
"0< c #882ada",
"0= c #4601b7",
"0> c #660ecb",
"0? c #983ce0",
"0@ c #6910cd",
"0[ c #600bc8",
"0] c #620cc9",
"0^ c #4c02bb",
"0_ c #7317d1",
"0{ c #4301b4",
"0| c #8f31dd",
"0} c #3c00ac",
"0~ c #3900a7",
"10 c #9235de",
"11 c #4000b1",
"12 c #5a07c5",
"13 c #5e09c7",
"14 c #4701b7",
"15 c #6a10cd",
"16 c #5907c4",
"17 c #5405c1",
"18 c #610bc8",
"19 c #9e44e2",
"1a c #9437df",
"1b c #600ac8",
"1c c #771ad3",
"1d c #a54ee5",
"1e c #3f00b0",
"1f c #963ae0",
"1g c #7b1dd5",
"1h c #5305c1",
"1i c #5606c2",
"1j c #5807c3",
"1k c #3b00a9",
"1l c #5305c0",
"1m c #8a2bdb",
"1n c #3a00a8",
"1o c #4100b2",
"1p c #37009e",
"1q c #37009b",
"1r c #5505c2",
"1s c #5e0ac7",
"000102030405060708090a0b0c0d0e0f",
"0g0h0i0j0k0l0m0n0o0p0q0r0s0t0u0v",
"0r0w0m0c0x0y0n000r0z0w0A0B0C0D0E",
"0F0G0w0H0I0J070K0L0M090N030O0P0v",
"0P0Q0R0S0n0T0U0V0t090p000T0W0f0X",
"0Y0Z0t0c080!0#0v0$0f0D0%0&020i0(",
"070)0o0j0U0G0*0+0,0-0.0/0:0;060o",
"000c0<0B0r0=0>0?0t0B0@0[0D0]0^0_",
"0W0s0/0&010{0f0|0}0{0~0k100_0r0s",
"0Z0}0^0g110c00120^0h0i0w130c0b14",
"0X0c15160L0W170)0h0Z0m0=0]0[0A0e",
"18000,19160b0W03010U0g0f1a0[0K1b",
"0i010g1c1d171e17160^0@1f0(01060s",
"110^0N0W0/1g1h0@041i0u1j0T1k120r",
"0J0a0c0r0A0]0m0i0s0o1l1k060v040n",
"1m0r1n09040G1o1p1q000J0r1r1s0V0I"
};
