/* XPM */
static char * image[] = {
"16 16 122 2",
"00 c #3e00ae",
"01 c #4000b0",
"02 c #3700a0",
"03 c #4c02bb",
"04 c #771ad3",
"05 c #620bc9",
"06 c #3d00ac",
"07 c #3a00a8",
"08 c #37009e",
"09 c #4200b3",
"0a c #4501b5",
"0b c #4c03bb",
"0c c #7f21d7",
"0d c #8d2fdc",
"0e c #5405c1",
"0f c #3900a5",
"0g c #4a02ba",
"0h c #5b08c5",
"0i c #5a08c5",
"0j c #4401b5",
"0k c #4d03bc",
"0l c #5004be",
"0m c #7518d2",
"0n c #640dca",
"0o c #4100b2",
"0p c #3b00a9",
"0q c #963ae0",
"0r c #7216d1",
"0s c #4e03bd",
"0t c #5d09c6",
"0u c #5806c3",
"0v c #7b1ed5",
"0w c #680fcc",
"0x c #4801b8",
"0y c #620cc9",
"0z c #4401b4",
"0A c #5506c2",
"0B c #5104bf",
"0C c #6c12ce",
"0D c #8c2edc",
"0E c #791cd4",
"0F c #8325d9",
"0G c #610bc9",
"0H c #8224d8",
"0I c #3b00aa",
"0J c #3800a4",
"0K c #4902b9",
"0L c #3c00ab",
"0M c #4701b7",
"0N c #6910cd",
"0O c #7317d1",
"0P c #5d09c7",
"0Q c #8325d8",
"0R c #5f0ac8",
"0S c #7b1dd5",
"0T c #4301b4",
"0U c #5606c2",
"0V c #3f00af",
"0W c #5204bf",
"0X c #6f14d0",
"0Y c #650dcb",
"0Z c #3c00aa",
"0! c #5807c4",
"0# c #8122d7",
"0$ c #600ac8",
"0% c #3800a3",
"0& c #4300b3",
"0( c #3700a1",
"0) c #4501b6",
"0* c #791bd4",
"0+ c #9539df",
"0, c #630cca",
"0- c #7015d0",
"0. c #5204c0",
"0/ c #4701b8",
"0: c #5907c4",
"0; c #882ada",
"0< c #3d00ad",
"0= c #9c41e2",
"0> c #7519d2",
"0? c #610bc8",
"0@ c #5505c2",
"0[ c #4601b7",
"0] c #8123d7",
"0^ c #7a1cd4",
"0_ c #3a00a7",
"0{ c #5807c3",
"0| c #4200b2",
"0} c #5c08c6",
"0~ c #9538df",
"10 c #660ecb",
"11 c #37009f",
"12 c #4100b1",
"13 c #6f14cf",
"14 c #6b11ce",
"15 c #37009c",
"16 c #630cc9",
"17 c #5706c3",
"18 c #4000b1",
"19 c #3800a2",
"1a c #5004bf",
"1b c #4f03be",
"1c c #7317d2",
"1d c #8729da",
"1e c #3e00ad",
"1f c #4b02ba",
"1g c #7014d0",
"1h c #8c2fdc",
"1i c #600bc8",
"1j c #4f03bd",
"1k c #4b02bb",
"1l c #670ecc",
"1m c #9d43e2",
"1n c #5505c1",
"1o c #983ce0",
"1p c #4601b6",
"1q c #7d1fd6",
"1r c #7418d2",
"1s c #5305c0",
"1t c #7e20d6",
"1u c #7115d0",
"1v c #5f0ac7",
"000102030405060708090a070b0c0d04",
"0e0f0g0e0h0i0j0k0l0m0n0o0p0n0q0r",
"0s0h0t0u0v0w0x0y0z0e0w0A0B0t0C0D",
"0E0F0G0H0D0s0I0x0J0J0K0L0M0N0O0P",
"0Q0C0R0S0x020T0g0U0V050W0J0a0X0Y",
"0l070s0e0Z0V0G0!0#0Y0$0v0x0%0&0K",
"060(0e0B0)0u0e0E0*0+0,0m0-0.0/0:",
"0e0e0;0,000<0i0=0>0$0H0n0?0@0[0]",
"0g0K0^0Y0_0I0{0Q0L0a0|0}0~100j0!",
"0V110.0U0a0g000k12020l13140M150j",
"1403161718120x19190j0A1a0N1b0g0r",
"1c1b0C1d0.0p0K1e061a1f1g1h1i1j1g",
"0V1k0T1l1m1n0M050C0!0w1o0,180g01",
"071p000o0w0C0W1q1r1s1t0Y0J070.00",
"1p0L0M0K0e0{0V0T0z010h12010h1s0g",
"1u00020g0>0C1e07190g1v0M0K0k0:0;"
};
