/* XPM */
static char * image[] = {
"16 16 120 2",
"00 c #660ecb",
"01 c #791bd4",
"02 c #9133de",
"03 c #600ac8",
"04 c #3f00af",
"05 c #4200b2",
"06 c #5c08c6",
"07 c #7115d1",
"08 c #680fcc",
"09 c #4b02bb",
"0a c #5a08c5",
"0b c #8628da",
"0c c #5305c0",
"0d c #3900a5",
"0e c #3c00aa",
"0f c #4100b2",
"0g c #6f14d0",
"0h c #9e44e2",
"0i c #6e13cf",
"0j c #5405c1",
"0k c #4200b3",
"0l c #4f03be",
"0m c #4701b7",
"0n c #4c03bc",
"0o c #3800a3",
"0p c #3d00ad",
"0q c #6a10cd",
"0r c #4802b8",
"0s c #4801b8",
"0t c #3e00ae",
"0u c #3b00aa",
"0v c #5505c2",
"0w c #4f03bd",
"0x c #4701b8",
"0y c #4d03bc",
"0z c #640dca",
"0A c #4401b5",
"0B c #4501b6",
"0C c #4601b6",
"0D c #4100b1",
"0E c #5204c0",
"0F c #3a00a7",
"0G c #963ae0",
"0H c #8123d7",
"0I c #6c12ce",
"0J c #5104bf",
"0K c #8426d9",
"0L c #6b11ce",
"0M c #3800a2",
"0N c #3c00ac",
"0O c #5b08c5",
"0P c #9134de",
"0Q c #6910cd",
"0R c #4401b4",
"0S c #5e0ac7",
"0T c #4501b5",
"0U c #5a07c4",
"0V c #a147e3",
"0W c #791cd4",
"0X c #4902b9",
"0Y c #620bc9",
"0Z c #9032dd",
"0! c #7015d0",
"0# c #3800a4",
"0$ c #3c00ab",
"0% c #3700a1",
"0& c #5807c4",
"0( c #a44ce4",
"0) c #7518d2",
"0* c #4e03bd",
"0+ c #4b02ba",
"0, c #3700a2",
"0- c #4c02bb",
"0. c #5706c3",
"0/ c #5004be",
"0: c #3a00a8",
"0; c #620cc9",
"0< c #4a02ba",
"0= c #7115d0",
"0> c #7f21d7",
"0? c #3d00ac",
"0@ c #670fcc",
"0[ c #5506c2",
"0] c #630cca",
"0^ c #5807c3",
"0_ c #610bc8",
"0{ c #9e44e3",
"0| c #650dca",
"0} c #4000b0",
"0~ c #882ada",
"10 c #5505c1",
"11 c #8d2fdc",
"12 c #8224d8",
"13 c #8c2edc",
"14 c #983de0",
"15 c #781bd4",
"16 c #6a11cd",
"17 c #640cca",
"18 c #5204bf",
"19 c #8123d8",
"1a c #610bc9",
"1b c #7619d3",
"1c c #7417d2",
"1d c #37009f",
"1e c #4300b3",
"1f c #37009d",
"1g c #8527d9",
"1h c #7116d1",
"1i c #8022d7",
"1j c #8b2ddb",
"1k c #8325d8",
"1l c #5606c2",
"1m c #771ad3",
"1n c #8a2cdb",
"1o c #5806c3",
"1p c #4601b7",
"1q c #5f0ac7",
"1r c #7b1dd5",
"1s c #7418d2",
"1t c #5f0ac8",
"000102030405060708090a0b0c0d0e0f",
"0g0h0i000j0k0l0m0n0o0p0q000r0d0s",
"0i0j08000t0u0v0w0g0x0y0z0A040B0C",
"040D0E0F0o0z0G000H0I0J0K0L0e0u0m",
"0M0k0N0F0O0P0Q0R050S0T0U0V0W0t0N",
"0X0Y0X0z0Z0!0p0m0#0f0$0%0&0(0!0B",
"0)010X080z0m0T0A0e0p0X0t0F0c010*",
"0+0r0#0X0!0z0B0,0-0J0s0.0t0R0J0F",
"0/0-0:0T0q0;0<0%0W0=0>0J0#0?0@0/",
"0[080E0]0I0^0Q0J0_0{0|0r0}0^0~10",
"0F0m0p0s11120v1314151617040R180d",
"0D0c040%0[19150g0)1a1b0m0#0s0;0m",
"0i0=1c0N1d0<0Q0j0s1a1e1f0n1g1h0O",
"0i0@1i0g040$0/0}0e0m0M0+1j120c1c",
"0/0;0;1k0U0<1a0^1l0E0m1m1n0s0R1o",
"0t01120q0-1p1q1r1s0l0c1t0J0s0k0o"
};
