/* XPM */
static char * image[] = {
"16 16 126 2",
"00 c #3900a6",
"01 c #3e00ae",
"02 c #3a00a8",
"03 c #5204c0",
"04 c #8426d9",
"05 c #7216d1",
"06 c #3900a5",
"07 c #4401b5",
"08 c #3a00a7",
"09 c #4000b1",
"0a c #5606c2",
"0b c #3d00ac",
"0c c #4601b6",
"0d c #5f0ac8",
"0e c #7015d0",
"0f c #6e13cf",
"0g c #7a1cd5",
"0h c #3d00ad",
"0i c #5004be",
"0j c #8022d7",
"0k c #660ecb",
"0l c #4100b1",
"0m c #3b00a9",
"0n c #5706c3",
"0o c #4d03bc",
"0p c #5a07c5",
"0q c #620cc9",
"0r c #3c00aa",
"0s c #3900a7",
"0t c #5204bf",
"0u c #a64ee5",
"0v c #8628da",
"0w c #610bc9",
"0x c #680fcc",
"0y c #8224d8",
"0z c #640dca",
"0A c #5907c4",
"0B c #7115d1",
"0C c #5c08c6",
"0D c #9437df",
"0E c #5e0ac7",
"0F c #4100b2",
"0G c #4401b4",
"0H c #6d12cf",
"0I c #aa55e7",
"0J c #9639e0",
"0K c #6a10cd",
"0L c #5d09c7",
"0M c #650dcb",
"0N c #5104bf",
"0O c #4b02bb",
"0P c #3800a2",
"0Q c #4f03bd",
"0R c #4c03bc",
"0S c #5d09c6",
"0T c #781bd4",
"0U c #600bc8",
"0V c #4c02bb",
"0W c #5b08c5",
"0X c #4f03be",
"0Y c #4501b6",
"0Z c #4301b4",
"0! c #5004bf",
"0# c #3c00ac",
"0$ c #4300b4",
"0% c #4902b9",
"0& c #4200b3",
"0( c #5305c0",
"0) c #4701b7",
"0* c #4e03bd",
"0+ c #4601b7",
"0, c #4000b0",
"0- c #7a1dd5",
"0. c #5405c1",
"0/ c #6a11cd",
"0: c #9d43e2",
"0; c #5505c1",
"0< c #630cc9",
"0= c #6910cd",
"0> c #882ada",
"0? c #3f00af",
"0@ c #670ecc",
"0[ c #9a3fe1",
"0] c #3b00aa",
"0^ c #4801b8",
"0_ c #7c1fd6",
"0{ c #4701b8",
"0| c #791cd4",
"0} c #5506c2",
"0~ c #4b02ba",
"10 c #5505c2",
"11 c #7c1ed6",
"12 c #4a02b9",
"13 c #7619d3",
"14 c #3f00b0",
"15 c #3800a3",
"16 c #3e00ad",
"17 c #5a08c5",
"18 c #8628d9",
"19 c #3700a0",
"1a c #4200b2",
"1b c #3800a4",
"1c c #7f21d7",
"1d c #6f14cf",
"1e c #5c09c6",
"1f c #670fcc",
"1g c #7b1dd5",
"1h c #6c12ce",
"1i c #6d12ce",
"1j c #7e20d6",
"1k c #781ad4",
"1l c #6f14d0",
"1m c #600ac8",
"1n c #650ecb",
"1o c #4802b8",
"1p c #37009c",
"1q c #4501b5",
"1r c #5a07c4",
"1s c #630cca",
"1t c #8526d9",
"1u c #4a02ba",
"1v c #37009d",
"1w c #4e03bc",
"1x c #5003be",
"1y c #3700a1",
"1z c #7417d2",
"000102030405060708090a0b0c0d0e0f",
"0g0h0i0j0k0l0m0n0o0p0q0r0s0t0u0v",
"0w0x0y0z0A0n0a0B0t0C0D0E0F0G0H0I",
"0x0J0K0L0M0N0O0a0b0P0Q0Q0R0S0N05",
"0T0U0V0W0X0F0Y0Z0!0#0$0i0Z0V0A0%",
"0o060&0(0)0Q0*0+0k0M0V0w0V0,0(0G",
"03060(0-0.070Z0x0/0:0T0n0;0R0<0U",
"0=030>0<0?080A0>040@0[0B0X0]0^0_",
"0z0{0|0e00060}0n0~0x100x110o1213",
"14150*0H0C0b0P0Y0?1617180e0&190c",
"0M0)0%0N0Q0~1a1b150)050x0V0?0o0f",
"1c0x0.0M0n0*0A0)0)1d0L1e1f0A0K1g",
"0l0z0!1h1i0}0f1j1k1l1m1n0a1o0n0^",
"1p1q0S1r1s0X101t040i1r0t1q1u0&1b",
"0,1v1w0z0k12060*0,000i1x0R1u0?0{",
"0N0h1y170v13010l1a0Y0T0S0&0l0X1z"
};
