/* XPM */
static char * image[] = {
"16 16 120 2",
"00 c #630cca",
"01 c #7216d1",
"02 c #8c2edc",
"03 c #5c08c6",
"04 c #4701b8",
"05 c #4200b2",
"06 c #5c09c6",
"07 c #7014d0",
"08 c #6b11ce",
"09 c #4a02ba",
"0a c #670fcc",
"0b c #8527d9",
"0c c #5305c0",
"0d c #3700a0",
"0e c #3b00aa",
"0f c #4701b7",
"0g c #7b1dd5",
"0h c #9f45e3",
"0i c #7317d1",
"0j c #5907c4",
"0k c #3c00ab",
"0l c #4601b7",
"0m c #4801b8",
"0n c #4601b6",
"0o c #3700a1",
"0p c #4100b2",
"0q c #610bc9",
"0r c #5204c0",
"0s c #4300b3",
"0t c #3e00ae",
"0u c #4501b6",
"0v c #7317d2",
"0w c #5807c4",
"0x c #3c00ac",
"0y c #3800a3",
"0z c #5a07c5",
"0A c #6b11cd",
"0B c #4902b9",
"0C c #4e03bd",
"0D c #6c12ce",
"0E c #5003be",
"0F c #3d00ad",
"0G c #5104bf",
"0H c #5505c1",
"0I c #3800a4",
"0J c #650dcb",
"0K c #5807c3",
"0L c #8a2cdb",
"0M c #7d20d6",
"0N c #3b00a9",
"0O c #4802b8",
"0P c #3a00a8",
"0Q c #640cca",
"0R c #9033de",
"0S c #6e13cf",
"0T c #4200b3",
"0U c #4f03bd",
"0V c #5606c2",
"0W c #9539df",
"0X c #3e00ad",
"0Y c #5e09c7",
"0Z c #963ae0",
"0! c #4401b5",
"0# c #4000b1",
"0$ c #3d00ac",
"0% c #983ce0",
"0& c #670ecc",
"0( c #4501b5",
"0) c #6910cd",
"0* c #5706c3",
"0+ c #7519d2",
"0, c #4401b4",
"0- c #4d03bc",
"0. c #4000b0",
"0/ c #37009f",
"0: c #5b08c5",
"0; c #771ad3",
"0< c #5004be",
"0= c #4100b1",
"0> c #37009e",
"0? c #5f0ac7",
"0@ c #5d09c7",
"0[ c #3f00af",
"0] c #8123d8",
"0^ c #781bd4",
"0_ c #8728da",
"0{ c #5e0ac7",
"0| c #6a11cd",
"0} c #6f14d0",
"0~ c #9133de",
"10 c #4b02ba",
"11 c #4301b4",
"12 c #5a08c5",
"13 c #9639e0",
"14 c #761ad3",
"15 c #7e20d6",
"16 c #9134de",
"17 c #7619d3",
"18 c #6a10cd",
"19 c #4b02bb",
"1a c #660ecb",
"1b c #3900a5",
"1c c #7519d3",
"1d c #5f0ac8",
"1e c #6d13cf",
"1f c #7f21d7",
"1g c #630cc9",
"1h c #610bc8",
"1i c #37009b",
"1j c #680fcc",
"1k c #9d42e2",
"1l c #8426d9",
"1m c #3900a6",
"1n c #9c41e2",
"1o c #7c1ed5",
"1p c #8022d7",
"1q c #7015d0",
"1r c #5506c2",
"1s c #7d1fd6",
"1t c #8223d8",
"000102030405060708090a0b0c0d0e0f",
"0g0h0i080j0k0l0m0n0o0p0q0r0s0t0u",
"0v0w0i060x0y0z0j0A0B0C0D0B0k0E0r",
"0F0G0H0k0I0J0h0K0700060L0M0e0N0O",
"0d0s0P0P0Q0R0S0T0f0U0p0V0W0S0X0N",
"0m0q0u0Y0Z0J0t0!0d0#0$0I030%0&0(",
"0)010*0+0Q0p0,0T0T0t0-0.0/0:0;03",
"0V0B0y0<0w0Y0=0>0j0?0*0j0X0k0-0k",
"0@0O0k0C030*0[0>0]0^0_0C0/0k0S0c",
"0?0{0G0|0}0c0j0-0:0~0S10110U0S12",
"0$0n0P0m13140c1516170S180T0[0c0k",
"191a0!1b0-0L1c1d1e0)1f0f0y0-1g04",
"1h170M0t0>0G010:090a0.1i0U0_0^1d",
"1j0V1k1l0x1m0m0t0[0=1m0B1n150H0J",
"0G1j1j0L1j0s0-0*0-100(1o1p0m0.0V",
"0N1q01081r111h1s1t0*0G08090F0,0N"
};
