/* XPM */
static char * image[] = {
"16 16 131 2",
"00 c #5f0ac7",
"01 c #6d12cf",
"02 c #8628da",
"03 c #660ecb",
"04 c #4b02bb",
"05 c #4200b3",
"06 c #5706c3",
"07 c #781bd4",
"08 c #650dcb",
"09 c #4000b0",
"0a c #640dca",
"0b c #8022d7",
"0c c #4e03bd",
"0d c #3800a2",
"0e c #3a00a8",
"0f c #4902b9",
"0g c #8628d9",
"0h c #993de1",
"0i c #6b11ce",
"0j c #8729da",
"0k c #5807c3",
"0l c #3f00af",
"0m c #4501b6",
"0n c #4d03bc",
"0o c #3900a5",
"0p c #4301b4",
"0q c #630cca",
"0r c #4601b6",
"0s c #4000b1",
"0t c #4801b8",
"0u c #7c1fd6",
"0v c #8223d8",
"0w c #7317d2",
"0x c #3900a7",
"0y c #5506c2",
"0z c #7e20d6",
"0A c #4c02bb",
"0B c #600ac8",
"0C c #6a11cd",
"0D c #3e00ae",
"0E c #3a00a7",
"0F c #5004be",
"0G c #4200b2",
"0H c #5e09c7",
"0I c #9336de",
"0J c #610bc9",
"0K c #5405c1",
"0L c #9538df",
"0M c #7619d3",
"0N c #3f00b0",
"0O c #5204c0",
"0P c #37009d",
"0Q c #4601b7",
"0R c #3c00ab",
"0S c #3700a1",
"0T c #5e0ac7",
"0U c #a047e3",
"0V c #680fcc",
"0W c #3c00aa",
"0X c #8c2fdc",
"0Y c #7417d2",
"0Z c #5807c4",
"0! c #9d43e2",
"0# c #6c12ce",
"0$ c #3b00a9",
"0% c #3700a0",
"0& c #3900a6",
"0( c #5907c4",
"0) c #8d2fdc",
"0* c #7519d3",
"0+ c #4401b5",
"0, c #6e13cf",
"0- c #7216d1",
"0. c #5104bf",
"0/ c #8123d8",
"0: c #6c11ce",
"0; c #3e00ad",
"0< c #4b02ba",
"0= c #3d00ad",
"0> c #5d09c7",
"0? c #7a1dd5",
"0@ c #5d09c6",
"0[ c #4f03bd",
"0] c #3a00a9",
"0^ c #620cc9",
"0_ c #3d00ac",
"0{ c #600bc8",
"0| c #4701b8",
"0} c #7015d0",
"0~ c #8c2edc",
"10 c #9a3fe1",
"11 c #5f0ac8",
"12 c #5606c2",
"13 c #4e03bc",
"14 c #7c1ed5",
"15 c #5505c2",
"16 c #8e31dd",
"17 c #5b08c5",
"18 c #7317d1",
"19 c #9a3ee1",
"1a c #5204bf",
"1b c #8123d7",
"1c c #4a02ba",
"1d c #8e30dd",
"1e c #630cc9",
"1f c #8325d8",
"1g c #8e30dc",
"1h c #37009f",
"1i c #7b1dd5",
"1j c #892bdb",
"1k c #6d13cf",
"1l c #3800a3",
"1m c #9d42e2",
"1n c #7b1ed5",
"1o c #8a2cdb",
"1p c #8224d8",
"1q c #4100b2",
"1r c #3800a4",
"1s c #4f03be",
"1t c #4701b7",
"1u c #4100b1",
"1v c #8b2ddb",
"1w c #4a02b9",
"1x c #5505c1",
"1y c #5c08c6",
"1z c #6a10cd",
"1A c #4802b8",
"1B c #4401b4",
"1C c #8527d9",
"1D c #7518d2",
"1E c #791cd4",
"000102030405060708090a0b0c0d0e0f",
"0g0h0i0j0k0l0m0n050o0p0q0n0r0s0t",
"0u000v0w0e0x0y0i0z0A0B0C0D0E0F0y",
"0G0n0a0e0e0H0I0J0w060K0L0M0N0o0O",
"0P0Q0R0S0T0U0V0s0t0F0W0k0X0Y0E0e",
"0t0K050Z0!0#0E0$0%0Q0&0d0(0)0*0+",
"0,0-0.0/0:0;0s0<0=0f0>0R0&0(0?0Z",
"0@0f0$0[0k040G0]0Z0(0^0H0_0_0.0f",
"0{0|0R0K060K0r0%0}0~100A0d0l110T",
"0H12130?140n041512160a17040K180@",
"0G0p0o0F19021a0,1b0a0b180_0o0c0e",
"150i050S1c1d020J1e1f1g091h0|0i0K",
"0V1i1b0m0d0t1j0J0Z1k091l0n1m1n06",
"08111o1p1q1r1s1t041u1r1c1d1v1w0(",
"1c1x1y1o1z0N1A0.0c0;1B1C0u0G1u0<",
"0o171D0q0Z04061E0?0A0J1E040_0+1l"
};
