/* XPM */
static char * image[] = {
"16 16 122 2",
"00 c #3d00ad",
"01 c #5004be",
"02 c #5405c1",
"03 c #5b08c5",
"04 c #7d1fd6",
"05 c #5606c2",
"06 c #3e00ae",
"07 c #5c09c6",
"08 c #4300b3",
"09 c #4000b0",
"0a c #650ecb",
"0b c #5e09c7",
"0c c #4b02bb",
"0d c #4200b3",
"0e c #7418d2",
"0f c #9133de",
"0g c #610bc9",
"0h c #640dca",
"0i c #983ce0",
"0j c #680fcc",
"0k c #3b00aa",
"0l c #3800a3",
"0m c #4601b7",
"0n c #3f00af",
"0o c #5e0ac7",
"0p c #4802b8",
"0q c #781bd4",
"0r c #7619d3",
"0s c #7015d0",
"0t c #af5ce8",
"0u c #7b1dd5",
"0v c #4401b4",
"0w c #3c00ab",
"0x c #5907c4",
"0y c #8628da",
"0z c #791cd4",
"0A c #5706c3",
"0B c #3900a5",
"0C c #5505c1",
"0D c #882ada",
"0E c #610bc8",
"0F c #993de1",
"0G c #6f14d0",
"0H c #4501b5",
"0I c #4401b5",
"0J c #5f0ac7",
"0K c #7014d0",
"0L c #3b00a9",
"0M c #8425d9",
"0N c #5807c3",
"0O c #620cc9",
"0P c #4601b6",
"0Q c #5a08c5",
"0R c #3f00b0",
"0S c #5204c0",
"0T c #5f0ac8",
"0U c #5305c0",
"0V c #4100b1",
"0W c #3900a7",
"0X c #3900a6",
"0Y c #5506c2",
"0Z c #4902b9",
"0! c #5c08c6",
"0# c #7e21d6",
"0$ c #3a00a7",
"0% c #4100b2",
"0& c #640cca",
"0( c #3e00ad",
"0) c #4e03bd",
"0* c #670ecc",
"0+ c #5807c4",
"0, c #3c00aa",
"0- c #4801b8",
"0. c #9a3ee1",
"0/ c #670fcc",
"0: c #3c00ac",
"0; c #8021d7",
"0< c #7317d1",
"0= c #5505c2",
"0> c #7a1cd4",
"0? c #7518d2",
"0@ c #4a02b9",
"0[ c #5d09c6",
"0] c #6c12ce",
"0^ c #7f21d7",
"0_ c #771ad3",
"0{ c #6d12cf",
"0| c #660ecb",
"0} c #892adb",
"0~ c #5a07c4",
"10 c #7c1ed6",
"11 c #4a02ba",
"12 c #892bdb",
"13 c #4000b1",
"14 c #3800a2",
"15 c #4301b4",
"16 c #3700a1",
"17 c #7216d1",
"18 c #4701b7",
"19 c #4d03bc",
"1a c #8b2ddb",
"1b c #7c1fd6",
"1c c #37009d",
"1d c #7e20d6",
"1e c #8022d7",
"1f c #7519d3",
"1g c #5104bf",
"1h c #8123d7",
"1i c #8829da",
"1j c #6b11ce",
"1k c #8b2ddc",
"1l c #8224d8",
"1m c #4f03bd",
"1n c #4f03be",
"1o c #5d09c7",
"1p c #7115d1",
"1q c #4b02ba",
"1r c #4200b2",
"1s c #37009b",
"1t c #6910cd",
"1u c #37009f",
"1v c #9639df",
"000102030405060708090a0b0c0d080e",
"0f0g0h0i0j0k0l020m0n0o090l0p0q0r",
"040s0t0u0v0w0x0y0z0A0u0u0n0B0C0D",
"0E0F0G0H0I0J0K0x0A0L0b0M0N0n000O",
"0P0Q060R0S0T0U0L0V0W0X0Y0E0A0V0B",
"0Z0X0k0!0#070w0$0%0&0(060)0*0+0,",
"0O0-030.0/0:0X0Q0U0;0<0%060=0>0g",
"0?0@0[0]090$0v0U0^0*0F0_090X0U0{",
"0*0H0A0|0H0X0I0V0!0D0}0|0U0P0~10",
"0@0k11120|13140d0-030[0.0|0:150S",
"0+0%160)0u17130n18191a1b0P1c0Z0A",
"1d1e0c080S1f0r011g1h1a0S130)1i1j",
"111e0j0)0p0!0y1k0q1l0Y0m0C170M0S",
"0n110y0<1m0k1n0?0&0V0n1m1o1p130k",
"090$110M1d080l1q1r1s1m0e1t061u0V",
"000V0%0O1v0a0P0j0A0P1e0]0w1u110)"
};
