/* XPM */
static char * image[] = {
"16 16 117 2",
"00 c #8224d8",
"01 c #8729da",
"02 c #9c41e2",
"03 c #5f0ac8",
"04 c #3c00ab",
"05 c #3b00aa",
"06 c #630cca",
"07 c #7619d3",
"08 c #7c1ed6",
"09 c #5606c2",
"0a c #5204bf",
"0b c #8426d9",
"0c c #5f0ac7",
"0d c #3c00aa",
"0e c #4401b4",
"0f c #5d09c6",
"0g c #9234de",
"0h c #670fcc",
"0i c #4d03bc",
"0j c #5004be",
"0k c #4b02bb",
"0l c #660ecb",
"0m c #4300b3",
"0n c #5104bf",
"0o c #3a00a8",
"0p c #3b00a9",
"0q c #6c12ce",
"0r c #7e20d6",
"0s c #4701b7",
"0t c #3800a3",
"0u c #3f00af",
"0v c #610bc8",
"0w c #4c03bc",
"0x c #4b02ba",
"0y c #5305c0",
"0z c #3d00ac",
"0A c #5003be",
"0B c #4000b1",
"0C c #5907c4",
"0D c #4701b8",
"0E c #4a02ba",
"0F c #4100b1",
"0G c #5706c3",
"0H c #7a1cd4",
"0I c #5a08c5",
"0J c #8325d8",
"0K c #5505c2",
"0L c #791cd4",
"0M c #6e13cf",
"0N c #4601b6",
"0O c #4401b5",
"0P c #4501b5",
"0Q c #3900a5",
"0R c #4902b9",
"0S c #4200b3",
"0T c #4000b0",
"0U c #680fcc",
"0V c #8f31dd",
"0W c #4f03be",
"0X c #600ac8",
"0Y c #8628d9",
"0Z c #4802b8",
"0! c #7116d1",
"0# c #8c2edc",
"0$ c #4801b8",
"0% c #3900a6",
"0& c #4200b2",
"0( c #8022d7",
"0) c #5e0ac7",
"0* c #781bd4",
"0+ c #4a02b9",
"0, c #5c09c6",
"0- c #5b08c5",
"0. c #3e00ae",
"0/ c #4100b2",
"0: c #5c08c6",
"0; c #4c02bb",
"0< c #3800a4",
"0= c #7216d1",
"0> c #7518d2",
"0? c #37009e",
"0@ c #4501b6",
"0[ c #3700a0",
"0] c #882adb",
"0^ c #3c00ac",
"0_ c #6d12cf",
"0{ c #3900a7",
"0| c #4601b7",
"0} c #7015d0",
"0~ c #600bc8",
"10 c #6f14d0",
"11 c #8628da",
"12 c #5305c1",
"13 c #7417d2",
"14 c #6b11ce",
"15 c #9538df",
"16 c #6a10cd",
"17 c #4301b4",
"18 c #791bd4",
"19 c #5204c0",
"1a c #4e03bd",
"1b c #3a00a7",
"1c c #6a11cd",
"1d c #37009f",
"1e c #5405c1",
"1f c #610bc9",
"1g c #640dca",
"1h c #7f21d7",
"1i c #892bdb",
"1j c #6910cd",
"1k c #8324d8",
"1l c #5505c1",
"1m c #7418d2",
"1n c #7115d0",
"1o c #8d2fdc",
"1p c #6f14cf",
"1q c #6d13cf",
"000102030405060708090a0b0c040d0e",
"0f0g0h0i0j0k0l0m0n0o0p0q0r0s0t0u",
"0v0w0x0y0z040A0B0C0x040i0j0D0m0p",
"0o040E0F050G0H0I070J0K0L0M0N0O0P",
"0Q0R0S0T0U0V030I0W0X0x0C0Y0h0S0R",
"0Z0!0y0X0#060$0i0%0&0k0u0c0(0)0n",
"0I0*0+090,0-0C0S0.0t0R0/0u0,0:0w",
"0T0;0<0Z0=0>0k0?0O0i0m0N0@0;090[",
"0E0k0[0&0=0]0E0^0q0h0_0S0{0/0G0m",
"0c0H0|0y0G0}0=0~10020c0d0F0C110a",
"0Q0a0E12130}141502160-0n170-0C0t",
"0o0$0T0o0x180,0h0_190C0e0<1a091b",
"0f0l1c0P1d0E0G0e0&1e0R1b0+0b0h1f",
"0#140_1g0F0&19040<0i0o0W1h0r0c1i",
"1j1k1c0~1l1e1m0y0n0U0k141n0C0C0I",
"170(1o0:040.1g1p1q190T1e0K0C0s0%"
};
