/* XPM */
static char * image[] = {
"16 16 119 2",
"00 c #7d1fd6",
"01 c #680fcc",
"02 c #4b02bb",
"03 c #3700a1",
"04 c #4200b3",
"05 c #650ecb",
"06 c #600ac8",
"07 c #610bc9",
"08 c #3f00af",
"09 c #5d09c6",
"0a c #4e03bc",
"0b c #4701b7",
"0c c #3d00ad",
"0d c #6910cd",
"0e c #5305c1",
"0f c #3c00ab",
"0g c #4501b5",
"0h c #660ecb",
"0i c #791cd4",
"0j c #4200b2",
"0k c #4e03bd",
"0l c #4601b7",
"0m c #4301b4",
"0n c #9a3ee1",
"0o c #5706c3",
"0p c #3800a2",
"0q c #3b00aa",
"0r c #4801b8",
"0s c #4401b5",
"0t c #3a00a8",
"0u c #4902b9",
"0v c #5405c1",
"0w c #5b08c5",
"0x c #4c02bb",
"0y c #4401b4",
"0z c #3800a4",
"0A c #771ad3",
"0B c #3f00b0",
"0C c #37009c",
"0D c #4601b6",
"0E c #5004be",
"0F c #5e09c7",
"0G c #4d03bc",
"0H c #5104bf",
"0I c #600bc8",
"0J c #8527d9",
"0K c #5505c1",
"0L c #4701b8",
"0M c #5606c2",
"0N c #5f0ac7",
"0O c #5a08c5",
"0P c #4a02ba",
"0Q c #4000b1",
"0R c #5907c4",
"0S c #5204c0",
"0T c #791bd4",
"0U c #8d2fdc",
"0V c #7518d2",
"0W c #5807c3",
"0X c #5d09c7",
"0Y c #5f0ac8",
"0Z c #640dca",
"0! c #8729da",
"0# c #7f21d7",
"0$ c #781bd4",
"0% c #4300b3",
"0& c #5e0ac7",
"0( c #4f03bd",
"0) c #7619d3",
"0* c #7519d3",
"0+ c #3900a5",
"0, c #5305c0",
"0- c #6d12cf",
"0. c #37009e",
"0/ c #3e00ae",
"0: c #4f03be",
"0; c #3b00a9",
"0< c #3d00ac",
"0= c #983ce0",
"0> c #4000b0",
"0? c #7216d1",
"0@ c #3900a6",
"0[ c #4100b1",
"0] c #7014d0",
"0^ c #8c2edc",
"0_ c #5506c2",
"0{ c #4100b2",
"0| c #3800a3",
"0} c #882ada",
"0~ c #8426d9",
"10 c #9c41e2",
"11 c #7418d2",
"12 c #7317d2",
"13 c #7b1ed5",
"14 c #7316d1",
"15 c #7c1ed5",
"16 c #4a02b9",
"17 c #aa54e6",
"18 c #6f14d0",
"19 c #4b02ba",
"1a c #6b11ce",
"1b c #630cc9",
"1c c #5505c2",
"1d c #3c00ac",
"1e c #9437df",
"1f c #620bc9",
"1g c #650dcb",
"1h c #9e44e2",
"1i c #9d43e2",
"1j c #670ecc",
"1k c #8022d7",
"1l c #8d30dc",
"1m c #5c09c6",
"1n c #9033dd",
"1o c #6d12ce",
"1p c #7b1dd5",
"1q c #37009f",
"1r c #6a10cd",
"1s c #8325d8",
"000100020304050206070809090a0b04",
"0c0d0e0f0g0h0i0j0k0l0m0i0n0o0p0q",
"0r0s0t0u0v0w0x030y0u0z0g0A0d0r03",
"0B0C0D0E0D0F0G0H0I0J0K0L0M0N0O0P",
"0Q0j010E0R070S0T0v0U0V0W0X0N0Y0Z",
"0R0!0#0S0M0I0Z0$0b0%0&0v0o0w0(0)",
"0l0*0k0+0,0-000s0L0.0/0S0H0:0c0Q",
"0;0x0f0<0*0=0&0>0f0l030q090?0v0z",
"0@0u030[0]0^0_0o0N0{0D0m0c0M0k0|",
"0:0}0E0@0l0~101112130G0@0<14150k",
"080Y06160x0k001715180c0/0_0*0,0q",
"0+080H0u190v0k1a0Z0c0l0u0G0R080z",
"1b0>0G0E041c0c0|0q1d0k0b0o1c0r0Z",
"1e1a020u0H1f0K0z030k0S0,1g0O0d1h",
"0d1i0Y0[0s1j1k0S0X1l1m0l0H0h1n0A",
"1o1p0^0v1q0/1r0,0K0E0p0g1a1s0w0u"
};
