/* XPM */
static char * image[] = {
"16 16 119 2",
"00 c #3900a6",
"01 c #5104bf",
"02 c #4a02ba",
"03 c #5606c2",
"04 c #8f32dd",
"05 c #5d09c6",
"06 c #3c00ab",
"07 c #4d03bc",
"08 c #3c00aa",
"09 c #3d00ac",
"0a c #630cca",
"0b c #4f03bd",
"0c c #4401b5",
"0d c #5305c0",
"0e c #660ecb",
"0f c #892bdb",
"0g c #5907c4",
"0h c #620cc9",
"0i c #9c41e2",
"0j c #6910cd",
"0k c #3b00a9",
"0l c #3a00a8",
"0m c #4c02bb",
"0n c #4200b2",
"0o c #4200b3",
"0p c #5506c2",
"0q c #3d00ad",
"0r c #37009d",
"0s c #4601b6",
"0t c #7b1dd5",
"0u c #7b1ed5",
"0v c #7f21d7",
"0w c #791cd4",
"0x c #a44ce4",
"0y c #771ad3",
"0z c #4701b7",
"0A c #4300b3",
"0B c #5e0ac7",
"0C c #8a2cdb",
"0D c #6f14d0",
"0E c #5c08c6",
"0F c #983de0",
"0G c #680fcc",
"0H c #3e00ae",
"0I c #5b08c5",
"0J c #9032dd",
"0K c #6a10cd",
"0L c #4f03be",
"0M c #7518d2",
"0N c #5204bf",
"0O c #4601b7",
"0P c #5c09c6",
"0Q c #4c03bb",
"0R c #4501b5",
"0S c #600bc8",
"0T c #3800a2",
"0U c #5405c1",
"0V c #3b00aa",
"0W c #670ecb",
"0X c #650dcb",
"0Y c #4301b4",
"0Z c #4401b4",
"0! c #5a08c5",
"0# c #5807c3",
"0$ c #610bc8",
"0% c #5f0ac8",
"0& c #8d2fdc",
"0( c #640dca",
"0) c #3900a5",
"0* c #3700a1",
"0+ c #5e09c7",
"0, c #973be0",
"0- c #7418d2",
"0. c #4100b1",
"0/ c #4c03bc",
"0: c #8022d7",
"0; c #7417d2",
"0< c #4e03bc",
"0= c #5f0ac7",
"0> c #4701b8",
"0? c #8b2ddb",
"0@ c #7619d3",
"0[ c #9538df",
"0] c #7d1fd6",
"0^ c #3800a4",
"0_ c #4a02b9",
"0{ c #6c12ce",
"0| c #3f00af",
"0} c #5706c3",
"0~ c #7e20d6",
"10 c #8527d9",
"11 c #7317d1",
"12 c #4000b0",
"13 c #4902b9",
"14 c #3900a7",
"15 c #4e03bd",
"16 c #781bd4",
"17 c #6d12cf",
"18 c #9337df",
"19 c #8426d9",
"1a c #7a1cd5",
"1b c #5004be",
"1c c #7c1ed5",
"1d c #6d12ce",
"1e c #8b2ddc",
"1f c #8123d7",
"1g c #4b02ba",
"1h c #7115d1",
"1i c #4501b6",
"1j c #3a00a7",
"1k c #4b02bb",
"1l c #5204c0",
"1m c #610bc9",
"1n c #3700a2",
"1o c #3700a0",
"1p c #37009c",
"1q c #6f14cf",
"1r c #9b40e1",
"1s c #7216d1",
"000102030405060708090a0b0c070d0e",
"0f0g0h0i0j0k0l0m0n0o0p0q0r0s0t0u",
"0v0w0x0y0z0A0B0C0D0E0F0G0H060I0J",
"050f0K070L0d0M0g07060N0t0h0O090P",
"0Q0I060R0d0S030l0z0T090U0U070s0V",
"02080V0d0W0P0V0q0z0X0Y0Z0N0!0#09",
"0$0Y0%0&0(0)0*0+0d0,0-0O0.0/0:0$",
"0;0<0=0a0n000>050?0@0[0]0z0^0d0w",
"0G0_0X0{0|0l0R0c0}0~10050I0Z0#0~",
"0m080d0&110k0r0Z12130(0&0y0n0613",
"030n141516170H0^0Y0d180v0R00150e",
"191a0O01050M161b070C160!0Y0z101c",
"130~1d0b0b0U191e1f16031g0#0%1h1i",
"1j130]0S070H0d0y0@1k0A1l1m0S0n1j",
"0R1n0m100y0H1o020|1p0b1q030H0T0Z",
"090c06031r0a120h0m0m0f1s060T0Q01"
};
