/* XPM */
static char * image[] = {
"16 16 117 2",
"00 c #7d1fd6",
"01 c #8223d8",
"02 c #a34ae4",
"03 c #5907c4",
"04 c #3c00aa",
"05 c #4000b0",
"06 c #7116d1",
"07 c #6c12ce",
"08 c #6d13cf",
"09 c #5706c3",
"0a c #4c02bb",
"0b c #7b1dd5",
"0c c #680fcc",
"0d c #3e00ae",
"0e c #4100b1",
"0f c #4902b9",
"0g c #9032dd",
"0h c #5a08c5",
"0i c #4501b6",
"0j c #5806c3",
"0k c #6b11ce",
"0l c #3a00a8",
"0m c #3d00ad",
"0n c #3800a4",
"0o c #5606c2",
"0p c #4401b4",
"0q c #5004be",
"0r c #4701b7",
"0s c #5505c2",
"0t c #3d00ac",
"0u c #5807c3",
"0v c #3900a6",
"0w c #4a02ba",
"0x c #620bc9",
"0y c #4b02bb",
"0z c #4501b5",
"0A c #3a00a7",
"0B c #3c00ab",
"0C c #3f00af",
"0D c #3b00a9",
"0E c #5b08c5",
"0F c #7216d1",
"0G c #7a1cd5",
"0H c #8d2fdc",
"0I c #5305c0",
"0J c #630cca",
"0K c #6f14d0",
"0L c #4801b8",
"0M c #3700a1",
"0N c #4200b3",
"0O c #4c03bb",
"0P c #4601b6",
"0Q c #7f21d7",
"0R c #5d09c6",
"0S c #610bc9",
"0T c #5104bf",
"0U c #781bd4",
"0V c #5505c1",
"0W c #8224d8",
"0X c #6e13cf",
"0Y c #4401b5",
"0Z c #4d03bc",
"0! c #5a07c4",
"0# c #6a10cd",
"0$ c #4f03be",
"0% c #5405c1",
"0& c #5204c0",
"0( c #8627d9",
"0) c #610bc8",
"0* c #5f0ac7",
"0+ c #37009d",
"0, c #4200b2",
"0- c #3e00ad",
"0. c #3800a2",
"0/ c #8829da",
"0: c #3700a0",
"0; c #5807c4",
"0< c #37009f",
"0= c #771ad3",
"0> c #4301b4",
"0? c #7619d3",
"0@ c #4601b7",
"0[ c #892bdb",
"0] c #4e03bd",
"0^ c #8325d8",
"0_ c #620cc9",
"0{ c #670ecc",
"0| c #a64fe5",
"0} c #3b00aa",
"0~ c #882ada",
"10 c #7317d2",
"11 c #9538df",
"12 c #791cd4",
"13 c #4b02ba",
"14 c #5204bf",
"15 c #3800a3",
"16 c #3c00ac",
"17 c #6d12cf",
"18 c #7a1cd4",
"19 c #5c08c6",
"1a c #4100b2",
"1b c #5e09c7",
"1c c #600ac8",
"1d c #8628d9",
"1e c #6910cd",
"1f c #4a02b9",
"1g c #7e20d6",
"1h c #9235de",
"1i c #8123d7",
"1j c #650dcb",
"1k c #7519d3",
"1l c #a54de5",
"1m c #3900a7",
"1n c #3f00b0",
"1o c #6a11cd",
"1p c #660ecb",
"1q c #640dca",
"000102030405060708090a0b0c0d0d0e",
"0f0g0h0i0a0j0k0f0f0l0m0k0b0f0n05",
"0o0f0p0q0m0r0s0t0u0f0v0w0x0y0z0A",
"0B0n0y0C0D0E0F0s0G0H0I0J0K0L0e05",
"0M0N0O0P0x0Q0R0S0T0U0I0V0W0X0Y0o",
"0Z0K0o0!080#0I0I0m0Y0$0e0%0U0!0o",
"0&0(0L0w0)0x0*050C0+0,0i0-030V0y",
"050w0.0N0W0/0w0:0m0p0l0r0I0;0V0v",
"0f0T0<050=0H0w0>0?0!0E0@0:0e0R0C",
"0V0[0q0]0u0X0^0_0{0|0J0B0}0c0~0;",
"0.0%0P0$0{0810110|120]0$130;140A",
"150a0>160O170S18080q190p1a0V0N0l",
"0R191b0p0v0a0]0d0m0i0Y0D0I0K1c0S",
"1d0k0k1e0L0P0q0.151f0p0r1g0F0c0~",
"0k1h1e1b0&0o1i0I0T1j0%070K0*171c",
"0]1k1l0)1m1n1o0)1p0I0N0I191q0V0D"
};
