/* XPM */
static char * image[] = {
"16 16 126 2",
"00 c #6c12ce",
"01 c #4c02bb",
"02 c #4a02ba",
"03 c #4200b2",
"04 c #3c00ac",
"05 c #4801b8",
"06 c #3a00a8",
"07 c #4501b6",
"08 c #5d09c6",
"09 c #3a00a7",
"0a c #3b00a9",
"0b c #5104bf",
"0c c #7317d1",
"0d c #7115d1",
"0e c #5204c0",
"0f c #37009c",
"0g c #4300b3",
"0h c #4601b6",
"0i c #3800a3",
"0j c #3e00ae",
"0k c #781bd4",
"0l c #7e20d6",
"0m c #4b02ba",
"0n c #791cd4",
"0o c #4d03bc",
"0p c #5706c3",
"0q c #7d1fd6",
"0r c #620bc9",
"0s c #4f03bd",
"0t c #4a02b9",
"0u c #4601b7",
"0v c #7a1dd5",
"0w c #8b2ddb",
"0x c #4902b9",
"0y c #3800a2",
"0z c #3d00ac",
"0A c #7519d3",
"0B c #a44be4",
"0C c #5004be",
"0D c #3b00aa",
"0E c #5807c4",
"0F c #4200b3",
"0G c #4301b4",
"0H c #7317d2",
"0I c #8325d8",
"0J c #37009f",
"0K c #3f00af",
"0L c #3700a1",
"0M c #7619d3",
"0N c #8c2fdc",
"0O c #6a11cd",
"0P c #8223d8",
"0Q c #8022d7",
"0R c #4701b7",
"0S c #9235de",
"0T c #6d13cf",
"0U c #892bdb",
"0V c #9336df",
"0W c #5e0ac7",
"0X c #9033dd",
"0Y c #7f21d7",
"0Z c #8526d9",
"0! c #7418d2",
"0# c #5907c4",
"0$ c #9234de",
"0% c #3c00ab",
"0& c #4501b5",
"0( c #3900a6",
"0) c #37009d",
"0* c #4100b1",
"0+ c #600bc8",
"0, c #5c08c6",
"0- c #4401b5",
"0. c #8123d8",
"0/ c #8c2edc",
"0: c #4c03bc",
"0; c #3700a0",
"0< c #4100b2",
"0= c #3d00ad",
"0> c #8224d8",
"0? c #7216d1",
"0@ c #6910cd",
"0[ c #3e00ad",
"0] c #7116d1",
"0^ c #9033de",
"0_ c #4c03bb",
"0{ c #5405c1",
"0| c #6f14cf",
"0} c #771ad3",
"0~ c #a046e3",
"10 c #3900a5",
"11 c #4401b4",
"12 c #5305c0",
"13 c #3900a7",
"14 c #7b1dd5",
"15 c #670ecc",
"16 c #4b02bb",
"17 c #963ae0",
"18 c #6a10cd",
"19 c #680fcc",
"1a c #7015d0",
"1b c #660ecb",
"1c c #8426d9",
"1d c #5b08c5",
"1e c #630cca",
"1f c #8b2ddc",
"1g c #5506c2",
"1h c #4f03be",
"1i c #3800a4",
"1j c #6b11ce",
"1k c #7417d2",
"1l c #650dcb",
"1m c #6c11ce",
"1n c #5505c1",
"1o c #4000b1",
"1p c #4701b8",
"1q c #9134de",
"1r c #610bc9",
"1s c #7c1fd6",
"1t c #6e13cf",
"1u c #6f14d0",
"1v c #9a3fe1",
"1w c #9133de",
"1x c #5f0ac8",
"1y c #5505c2",
"1z c #8a2cdb",
"00010203040501060708090a0b0c0d0e",
"0f0g0h0i0j0k0l0m0b0n0o0p0q0r0s0t",
"060u0f0j0v0w0x0y0a0x060z0A0B0C0D",
"0E0F0G0H0I0s0J0g0K0p0o0L0g0M0N0x",
"0O0o0P0Q0o060R0S0T0k0U0p0j0u0A0V",
"0W0O0X0R0a0x0Y0Z0!0#0$0P0b0%0&0Y",
"0(0m010)0*0l0w0+0,0-020.0/0:0;0<",
"0=0o0e05080>0?0@0=0x0z0[0]0^0m0R",
"0J0u0_070{0|0}0~0F100;0h0@0c0j0i",
"110#12130K140Y15080*0m0602080m16",
"0_00170C0L0=18190m0o0i0(1a0U0E0E",
"03061b1c1d06100C0b0D0D1e1f1g0L0&",
"1h1i0j1j1k0#0J0[0%101l0k0{0j061g",
"1m1n0a0D0c0$1d1o1p191q1r0j0[191s",
"1t1u120J0=0?141g0{0v0#130=0q1v1j",
"1w191x0g0K010s10101y0%100n1z1b0O"
};
