/* XPM */
static char * image[] = {
"16 16 121 2",
"00 c #7e20d6",
"01 c #7b1ed5",
"02 c #8d2fdc",
"03 c #5c08c6",
"04 c #3900a6",
"05 c #3e00ae",
"06 c #6f14cf",
"07 c #650dcb",
"08 c #7417d2",
"09 c #5606c2",
"0a c #4601b6",
"0b c #630cca",
"0c c #4100b1",
"0d c #4200b3",
"0e c #4501b5",
"0f c #8022d7",
"0g c #5305c0",
"0h c #4301b4",
"0i c #4701b7",
"0j c #5004be",
"0k c #6e13cf",
"0l c #4300b3",
"0m c #5204c0",
"0n c #3f00af",
"0o c #3c00ab",
"0p c #6d12cf",
"0q c #8728da",
"0r c #5104bf",
"0s c #37009e",
"0t c #4000b0",
"0u c #4802b8",
"0v c #4601b7",
"0w c #3800a4",
"0x c #680fcc",
"0y c #5f0ac8",
"0z c #4c03bc",
"0A c #3800a2",
"0B c #4801b8",
"0C c #3d00ad",
"0D c #5807c3",
"0E c #5e09c7",
"0F c #5907c4",
"0G c #8527d9",
"0H c #4b02bb",
"0I c #5a07c4",
"0J c #5405c1",
"0K c #4902b9",
"0L c #3900a5",
"0M c #5706c3",
"0N c #600bc8",
"0O c #7d1fd6",
"0P c #670ecc",
"0Q c #640dca",
"0R c #4a02ba",
"0S c #8123d8",
"0T c #660ecb",
"0U c #5806c3",
"0V c #7619d3",
"0W c #610bc9",
"0X c #5204bf",
"0Y c #7b1dd5",
"0Z c #5e0ac7",
"0! c #5506c2",
"0# c #4e03bc",
"0$ c #4d03bc",
"0% c #5b08c5",
"0& c #6d13cf",
"0( c #5d09c6",
"0) c #6c12ce",
"0* c #5505c1",
"0+ c #7c1ed6",
"0, c #4100b2",
"0- c #7014d0",
"0. c #7116d1",
"0/ c #37009c",
"0: c #4401b5",
"0; c #37009d",
"0< c #791cd4",
"0= c #973ae0",
"0> c #4501b6",
"0? c #3e00ad",
"0@ c #4000b1",
"0[ c #4f03be",
"0] c #7519d3",
"0^ c #8425d9",
"0_ c #7115d0",
"0{ c #7418d2",
"0| c #7c1fd6",
"0} c #8426d9",
"0~ c #600ac8",
"10 c #9b40e1",
"11 c #5a08c5",
"12 c #3d00ac",
"13 c #892bdb",
"14 c #5505c2",
"15 c #4f03bd",
"16 c #7216d1",
"17 c #9f45e3",
"18 c #a54de5",
"19 c #771ad3",
"1a c #4e03bd",
"1b c #6910cd",
"1c c #3a00a7",
"1d c #5c09c6",
"1e c #781bd4",
"1f c #7518d2",
"1g c #610bc8",
"1h c #4c02bb",
"1i c #4b02ba",
"1j c #3b00aa",
"1k c #9538df",
"1l c #37009f",
"1m c #6f14d0",
"1n c #630cc9",
"1o c #8c2fdc",
"1p c #7015d0",
"1q c #8325d8",
"1r c #6b11ce",
"1s c #a44ce4",
"1t c #5f0ac7",
"1u c #3b00a9",
"000102030405060708090a0b0b0c050d",
"0e0f0g0h0i0j0k0l0m0n0o0p0q0r0s0t",
"0u0v0h0i0i0h0j0w0m0i0w0i0x0y0z0w",
"0t0A0a0B0C0D0E0F0b0G0H0I030J0K0l",
"0L0l0M0K0N0O0P0Q0R0S0T0U0V0W0X0D",
"0M0Y0x030p0Z0!0Q050t0#0$0%0&0(0)",
"0*0+0B0,0j0-0.0c0t0/0e0a0:0g0m0d",
"0L0K0;0n0<0=0$0L0t0>040?0r0)0K0L",
"0@0[0w0t0]0^090K0_0r0!0i0w0e0[0w",
"0%0{0g050g0|0}0~0x10110L120k130J",
"0o140U15030(161718190:0i1a1b0X1c",
"040l1a050r1d1a1e1f0B0$0R0@0X0a0A",
"1g1h0D0>0o1a1i1j0o0l0z0@0j0p0j0b",
"1k0-0W0J0K0j0D1l0A0J0:0[1m0)1n1k",
"0b1o1p0j0[0(1q0F0I1r1a110Z030_0b",
"1h0<1s111c0C0_0F0(09120j1t190[1u"
};
