/* XPM */
static char * image[] = {
"16 16 122 2",
"00 c #3b00a9",
"01 c #3b00aa",
"02 c #3800a4",
"03 c #5204bf",
"04 c #8b2ddc",
"05 c #7115d1",
"06 c #3e00ad",
"07 c #3700a0",
"08 c #4401b4",
"09 c #5606c2",
"0a c #4000b0",
"0b c #4a02ba",
"0c c #620cc9",
"0d c #7216d1",
"0e c #7115d0",
"0f c #6a11cd",
"0g c #3d00ad",
"0h c #4f03be",
"0i c #771ad3",
"0j c #660ecb",
"0k c #4501b5",
"0l c #3c00ab",
"0m c #5104bf",
"0n c #4701b7",
"0o c #5c09c6",
"0p c #6b11ce",
"0q c #3e00ae",
"0r c #5004be",
"0s c #9d42e2",
"0t c #791cd4",
"0u c #610bc8",
"0v c #650dcb",
"0w c #650ecb",
"0x c #600ac8",
"0y c #5405c1",
"0z c #7317d2",
"0A c #4801b8",
"0B c #5907c4",
"0C c #7a1dd5",
"0D c #4701b8",
"0E c #6d12cf",
"0F c #8c2edc",
"0G c #7d1fd6",
"0H c #9d43e2",
"0I c #630cca",
"0J c #7015d0",
"0K c #5004bf",
"0L c #4b02ba",
"0M c #3a00a8",
"0N c #3700a1",
"0O c #5706c3",
"0P c #4300b3",
"0Q c #8325d8",
"0R c #640dca",
"0S c #4f03bd",
"0T c #4902b9",
"0U c #3f00af",
"0V c #4e03bd",
"0W c #5305c0",
"0X c #4d03bc",
"0Y c #4601b6",
"0Z c #4b02bb",
"0! c #4301b4",
"0# c #670fcc",
"0$ c #4802b8",
"0% c #6d13cf",
"0& c #4501b6",
"0( c #6c12ce",
"0) c #7317d1",
"0* c #ae5ae8",
"0+ c #7619d3",
"0, c #5a07c5",
"0- c #5a08c5",
"0. c #9032dd",
"0/ c #3c00aa",
"0: c #8a2cdb",
"0; c #781bd4",
"0< c #680fcc",
"0= c #993de1",
"0> c #4100b2",
"0? c #7b1dd5",
"0@ c #5f0ac7",
"0[ c #3900a7",
"0] c #5204c0",
"0^ c #4401b5",
"0_ c #5e09c7",
"0{ c #7e20d6",
"0| c #6e13cf",
"0} c #3800a2",
"0~ c #5505c1",
"10 c #4200b2",
"11 c #8426d9",
"12 c #761ad3",
"13 c #6f14d0",
"14 c #4601b7",
"15 c #4100b1",
"16 c #37009f",
"17 c #3900a6",
"18 c #8123d7",
"19 c #5f0ac8",
"1a c #5b08c5",
"1b c #6a10cd",
"1c c #670ecc",
"1d c #5c08c6",
"1e c #781ad4",
"1f c #5e0ac7",
"1g c #5807c3",
"1h c #8022d7",
"1i c #882ada",
"1j c #600bc8",
"1k c #4200b3",
"1l c #3900a5",
"1m c #8628da",
"1n c #690fcd",
"1o c #4c03bc",
"1p c #37009d",
"1q c #3800a3",
"1r c #4c02bb",
"1s c #3d00ac",
"1t c #5807c4",
"1u c #9133de",
"1v c #7518d2",
"00010203040501060708090a0b0c0d0e",
"0f0g0h0i0j0k0l0m0n0o0p0q000r0s0t",
"0u0v0p0w0x090y0z0A0B0C090D0y0E0F",
"0G0H0o0I0J0K0b0L0M0N0O0m0P0o0j0x",
"0Q0R0S0f0T0U0A0a0V0q0n0y0g0n0W0X",
"0n0M0Y0r080L0Z0!0G0p0S0#0r010$0U",
"0X020B0%0W0!0&0(0)0*0+0j0,0r0-0-",
"0p0T0.0j000/0O0:0;0<0=0J0X0>0V0t",
"0B0Z0?0@0[020]0j0^0]0S0_0{0y0k0|",
"0U0}0~0o0L0!0N100!0M0m11120g070h",
"13140X0]0D0$1516170n0R0<0O0q0V18",
"0+190B0G1a0T0S150q1b0_1c0)1d1b1e",
"0&1f0W0f0z1g0x1h0d0j0o1i1j1k0-0A",
"1l080b0m0R0B0S1h1m091n1f0P081o1p",
"0a1q1r0@0R0&1q080q0M090^0$0m1s0>",
"1t0g1q0O1u1v1s100q0n0v0y080&0]0?"
};
