/* XPM */
static char * image[] = {
"16 16 122 2",
"00 c #3f00b0",
"01 c #5405c1",
"02 c #630cca",
"03 c #6f14d0",
"04 c #5305c0",
"05 c #4a02ba",
"06 c #650dcb",
"07 c #4b02bb",
"08 c #3a00a7",
"09 c #5d09c6",
"0a c #4501b6",
"0b c #3b00a9",
"0c c #3d00ad",
"0d c #6d12cf",
"0e c #9134de",
"0f c #7317d2",
"0g c #660ecb",
"0h c #9c41e2",
"0i c #7b1ed5",
"0j c #3900a5",
"0k c #4d03bc",
"0l c #4801b8",
"0m c #3b00aa",
"0n c #3900a6",
"0o c #4e03bd",
"0p c #640dca",
"0q c #8224d8",
"0r c #7d1fd6",
"0s c #9f45e3",
"0t c #791bd4",
"0u c #4301b4",
"0v c #8c2edc",
"0w c #7317d1",
"0x c #5505c2",
"0y c #8123d7",
"0z c #3e00ae",
"0A c #37009e",
"0B c #5c09c6",
"0C c #9032dd",
"0D c #7a1dd5",
"0E c #6e13cf",
"0F c #4100b1",
"0G c #4200b2",
"0H c #600bc8",
"0I c #7d20d6",
"0J c #5706c3",
"0K c #7f21d7",
"0L c #5f0ac7",
"0M c #3d00ac",
"0N c #4401b4",
"0O c #3a00a8",
"0P c #5204c0",
"0Q c #610bc9",
"0R c #3700a0",
"0S c #4601b6",
"0T c #3800a4",
"0U c #5907c4",
"0V c #6910cd",
"0W c #3c00ac",
"0X c #3800a2",
"0Y c #4401b5",
"0Z c #4000b0",
"0! c #3900a7",
"0# c #8729da",
"0$ c #5e09c7",
"0% c #3e00ad",
"0& c #7619d3",
"0( c #5b08c5",
"0) c #4b02ba",
"0* c #9235de",
"0+ c #4f03bd",
"0, c #4c03bb",
"0- c #7b1dd5",
"0. c #7216d1",
"0/ c #3c00ab",
"0: c #9437df",
"0; c #680fcc",
"0< c #4902b9",
"0= c #8628da",
"0> c #781bd4",
"0? c #7519d3",
"0@ c #7a1cd4",
"0[ c #5606c2",
"0] c #4300b3",
"0^ c #3f00af",
"0_ c #8527d9",
"0{ c #8d2fdc",
"0| c #6b11ce",
"0} c #4200b3",
"0~ c #5104bf",
"10 c #9234de",
"11 c #4701b7",
"12 c #6a10cd",
"13 c #7015d0",
"14 c #7115d0",
"15 c #4f03be",
"16 c #3800a3",
"17 c #973ae0",
"18 c #781ad4",
"19 c #8325d8",
"1a c #882ada",
"1b c #892bdb",
"1c c #8a2cdb",
"1d c #7116d1",
"1e c #4000b1",
"1f c #7417d2",
"1g c #8022d7",
"1h c #5004be",
"1i c #9033dd",
"1j c #7418d2",
"1k c #600ac8",
"1l c #7518d2",
"1m c #9539df",
"1n c #7c1fd6",
"1o c #3700a1",
"1p c #4701b8",
"1q c #8728da",
"1r c #37009b",
"1s c #7c1ed5",
"1t c #7014d0",
"1u c #670ecc",
"1v c #7e20d6",
"0001010203040506070809030a0b0c0d",
"0e0f0g0h0i0c0j0k0l0m010l0n0o0d0p",
"0q0r0s0t0u0m040v0w0x0y0t0z0A0B0C",
"010D0E0F0G0H0I020J0u010K0L0c0M0p",
"0N0J0O0b0P030Q0R0S0z0T0U0V0J0W0X",
"0Y0Z0!020#0$0n0X0%090n0m010&0(0j",
"0w0)090*0E0z0O0+0,0-0.0Z0/0o0:0H",
"0E0k0k0;0Z0O0Y0<0=0>0v0?0c0T0o0;",
"0@0a0[0g0]0O0^0b0B0_0{0(0F0z0U0|",
"0P0}0~100>0m0j110o12130v140}1504",
"0k0]16040>0?0G0Y0<01170_0a160k04",
"13180S0Y0J191a0~0J1b1c050n0)0C1d",
"0J0v030)1e0U0h0#1f1b070]0k0r1g0P",
"0%1h1i1j110O0P1k0(0S0/0o0E1l1e0/",
"0G0z0k1m1n0^1o0o0F0X1p1q0E0M1r0z",
"0b0Y0<0(1s0Q151t1u0<1g1v0Z0R0Y0S"
};
