/* XPM */
static char * image[] = {
"16 16 119 2",
"00 c #7317d1",
"01 c #4f03be",
"02 c #4902b9",
"03 c #4401b5",
"04 c #3900a5",
"05 c #4d03bc",
"06 c #5c08c6",
"07 c #3c00ab",
"08 c #4401b4",
"09 c #6a10cd",
"0a c #3f00af",
"0b c #5305c0",
"0c c #7619d3",
"0d c #7519d2",
"0e c #4301b4",
"0f c #3700a0",
"0g c #37009f",
"0h c #791cd4",
"0i c #7b1dd5",
"0j c #4b02ba",
"0k c #7518d2",
"0l c #4e03bd",
"0m c #5f0ac7",
"0n c #630cc9",
"0o c #3a00a7",
"0p c #4100b1",
"0q c #3800a4",
"0r c #4300b3",
"0s c #771ad3",
"0t c #4802b8",
"0u c #3800a2",
"0v c #3a00a8",
"0w c #3b00a9",
"0x c #a147e3",
"0y c #5807c4",
"0z c #3d00ad",
"0A c #4300b4",
"0B c #6c12ce",
"0C c #680fcc",
"0D c #4501b6",
"0E c #620bc9",
"0F c #4c02bb",
"0G c #4100b2",
"0H c #6d13cf",
"0I c #8325d8",
"0J c #670fcc",
"0K c #5104bf",
"0L c #7b1ed5",
"0M c #4200b3",
"0N c #4601b6",
"0O c #9235de",
"0P c #600ac8",
"0Q c #7f21d7",
"0R c #8426d9",
"0S c #4000b0",
"0T c #8224d8",
"0U c #892bdb",
"0V c #6f14d0",
"0W c #7d1fd6",
"0X c #3900a6",
"0Y c #5004be",
"0Z c #8d2fdc",
"0! c #983ce0",
"0# c #6e13cf",
"0$ c #4f03bd",
"0% c #8022d7",
"0& c #5405c1",
"0( c #7a1dd5",
"0) c #4a02ba",
"0* c #4501b5",
"0+ c #9234de",
"0, c #8b2ddc",
"0- c #5606c2",
"0. c #4000b1",
"0/ c #7015d0",
"0: c #3800a3",
"0; c #5d09c7",
"0< c #620cc9",
"0= c #5b08c5",
"0> c #4601b7",
"0? c #3d00ac",
"0@ c #4701b7",
"0[ c #4801b8",
"0] c #5a08c5",
"0^ c #6b11ce",
"0_ c #8628da",
"0{ c #3700a1",
"0| c #650dcb",
"0} c #670ecc",
"0~ c #3c00ac",
"10 c #7216d1",
"11 c #6a11cd",
"12 c #4701b8",
"13 c #610bc9",
"14 c #8527d9",
"15 c #3b00aa",
"16 c #3900a7",
"17 c #9438df",
"18 c #630cca",
"19 c #5907c4",
"1a c #5204c0",
"1b c #5d09c6",
"1c c #5706c3",
"1d c #5505c2",
"1e c #600bc8",
"1f c #3e00ae",
"1g c #6f14cf",
"1h c #5204bf",
"1i c #640dca",
"1j c #8a2cdb",
"1k c #7317d2",
"1l c #8c2edc",
"1m c #5807c3",
"1n c #7e21d6",
"1o c #9032dd",
"1p c #a44ce5",
"1q c #9437df",
"1r c #3f00b0",
"1s c #7115d0",
"00010203040506070809070a0b0c0d0e",
"0f02020g0a0h0i0e0j0k0l0m0i0n020j",
"0o0p0q0r0k0s0t0g0u050v0w0c0x0b07",
"0y0z0A0B0C0t0u030D0E0F0w0G0H0I05",
"0J0K0L0s010M0N0O0P0Q0R0y0S0N0T0U",
"0y0V0W0j0X0Y0Z0!0#0$0%0s0&0p0t0(",
"0X0)0*0f0*0+0,0b0-0a0.0/0s0l0f0.",
"0:0F020S0;0U0<0=0o0>0o0?0#0I0@0S",
"0g0t0[0G0]0^0#0_0F0q0{0D0|0}0~04",
"0[0E0$0{0S100,110m120[0v0a130&0*",
"120H140y150S110^0&0b0f160V170b0[",
"0v0z180J190w0X0K1a0:0o1b0%1c0:07",
"0Y0X151d100b0v150~0X1e100&1f040-",
"0B1e0q1f1g0I1h0e0D1i1j190S0D1i0R",
"1k1l1m0o0z0s1n01191o0b150a0c1p0s",
"1q1i1e0F040[0K0w1r0F0v1f1s1o0B0^"
};
