/* XPM */
static char * image[] = {
"16 16 130 2",
"00 c #4b02bb",
"01 c #3c00ab",
"02 c #3900a5",
"03 c #4000b0",
"04 c #5204bf",
"05 c #660ecb",
"06 c #3800a2",
"07 c #3900a6",
"08 c #5104bf",
"09 c #4301b4",
"0a c #37009f",
"0b c #4c02bb",
"0c c #9a3fe1",
"0d c #8628da",
"0e c #6b11ce",
"0f c #3b00aa",
"0g c #3700a0",
"0h c #4601b6",
"0i c #4401b4",
"0j c #4501b6",
"0k c #6a10cd",
"0l c #4f03bd",
"0m c #5606c2",
"0n c #791cd4",
"0o c #670ecb",
"0p c #4100b1",
"0q c #5706c3",
"0r c #5e09c7",
"0s c #7b1ed5",
"0t c #630cca",
"0u c #5505c1",
"0v c #4200b3",
"0w c #7a1cd5",
"0x c #7f21d7",
"0y c #4100b2",
"0z c #5e0ac7",
"0A c #8a2cdb",
"0B c #630cc9",
"0C c #650dcb",
"0D c #5907c4",
"0E c #4e03bd",
"0F c #8325d8",
"0G c #9c42e2",
"0H c #4701b7",
"0I c #37009d",
"0J c #3700a1",
"0K c #4300b3",
"0L c #7d1fd6",
"0M c #973be0",
"0N c #5d09c7",
"0O c #9235de",
"0P c #5b08c5",
"0Q c #8022d7",
"0R c #8224d8",
"0S c #4f03be",
"0T c #3f00af",
"0U c #6910cd",
"0V c #5405c1",
"0W c #4902b9",
"0X c #3800a4",
"0Y c #791bd4",
"0Z c #7b1dd5",
"0! c #4501b5",
"0# c #5f0ac7",
"0$ c #781bd4",
"0% c #8d30dc",
"0& c #7216d1",
"0( c #9032dd",
"0) c #37009c",
"0* c #690fcd",
"0+ c #3a00a8",
"0, c #3b00a9",
"0- c #5305c0",
"0. c #6e13cf",
"0/ c #7619d3",
"0: c #5a07c4",
"0; c #8b2ddb",
"0< c #9d43e2",
"0= c #4801b8",
"0> c #9c41e2",
"0? c #5004be",
"0@ c #5d09c6",
"0[ c #5807c3",
"0] c #7317d2",
"0^ c #7417d2",
"0_ c #4802b8",
"0{ c #7317d1",
"0| c #3e00ae",
"0} c #4b02ba",
"0~ c #6d13cf",
"10 c #9437df",
"11 c #4000b1",
"12 c #3d00ac",
"13 c #8729da",
"14 c #7518d2",
"15 c #3c00aa",
"16 c #3f00b0",
"17 c #4a02ba",
"18 c #5807c4",
"19 c #3800a3",
"1a c #4200b2",
"1b c #7115d0",
"1c c #5204c0",
"1d c #4401b5",
"1e c #6c12ce",
"1f c #4c03bb",
"1g c #6a11cd",
"1h c #9d42e2",
"1i c #3d00ad",
"1j c #7014d0",
"1k c #5a08c5",
"1l c #9133de",
"1m c #640dca",
"1n c #6d12cf",
"1o c #9b3fe1",
"1p c #4701b8",
"1q c #6f14d0",
"1r c #8728da",
"1s c #5c08c6",
"1t c #600ac8",
"1u c #8527d9",
"1v c #5806c3",
"1w c #3c00ac",
"1x c #3a00a7",
"1y c #6c11ce",
"1z c #7a1dd5",
"1A c #9539df",
"1B c #600bc8",
"1C c #37009e",
"1D c #7115d1",
"00010203040503060708090a0b0c0d0e",
"0f0g0h0i0j0k0l0m040n0o0p0q0r0s0t",
"0i0u0v0b0w0x0i0y0100080p0z0A0B0C",
"0C0D0E0F0G0H0I090J0i0b020K0L0M0N",
"0O0P0Q0R0S0g0T0e0U0V0n0W0X0p0Y0Z",
"040!0#0S0J0i0$0U0%0&0Q0(0W0)0y0*",
"0+0,0-0T0i0.0Z0C0/0&0:0;0<0l020=",
"0y0m0/08000l0U0>0?000@0[0]0^0_0D",
"0+0W0{0-0|0}0~101112010r13141509",
"0116080T010m0V0u0h07170V180-191a",
"1b0-0$1c0X010b1d010W030!1e0$1f0.",
"0V0j1g1h0q060T0903121i1j0>0P0j1k",
"0W0+010s1l1m1i0E170K1n1o0P0,121p",
"030=0+1i1q1r0-1s0B1t1u1v0g1w1c0W",
"0q0E0b07171n040=1d0u0r0+1x1y1z0t",
"1A0}0T1d0V1B090I1C0E0W090t0k1D0<"
};
