/* XPM */
static char * image[] = {
"16 16 126 2",
"00 c #4e03bd",
"01 c #791cd4",
"02 c #7d1fd6",
"03 c #6a10cd",
"04 c #5506c2",
"05 c #4902b9",
"06 c #5405c1",
"07 c #791bd4",
"08 c #5b08c5",
"09 c #3d00ad",
"0a c #6b11ce",
"0b c #3800a3",
"0c c #3900a5",
"0d c #9a3fe1",
"0e c #8022d7",
"0f c #680fcc",
"0g c #7f21d7",
"0h c #5e0ac7",
"0i c #3b00a9",
"0j c #4200b3",
"0k c #4a02b9",
"0l c #4300b3",
"0m c #3700a2",
"0n c #5907c4",
"0o c #5204bf",
"0p c #8123d7",
"0q c #6d12cf",
"0r c #882ada",
"0s c #6c12ce",
"0t c #3800a4",
"0u c #5c08c6",
"0v c #7317d2",
"0w c #8123d8",
"0x c #650dcb",
"0y c #650ecb",
"0z c #4301b4",
"0A c #5305c0",
"0B c #630cca",
"0C c #3a00a7",
"0D c #3b00aa",
"0E c #640dca",
"0F c #8e30dd",
"0G c #610bc9",
"0H c #761ad3",
"0I c #5505c1",
"0J c #3c00ab",
"0K c #4c02bb",
"0L c #3900a6",
"0M c #4701b7",
"0N c #3c00aa",
"0O c #620cc9",
"0P c #9b40e2",
"0Q c #5e09c7",
"0R c #3f00af",
"0S c #3700a1",
"0T c #892bdb",
"0U c #6f14d0",
"0V c #3d00ac",
"0W c #4501b5",
"0X c #4d03bc",
"0Y c #3900a7",
"0Z c #5f0ac7",
"0! c #9033dd",
"0# c #7116d1",
"0$ c #3a00a8",
"0% c #5706c3",
"0& c #9b40e1",
"0( c #6d13cf",
"0) c #7317d1",
"0* c #7619d3",
"0+ c #3e00ae",
"0, c #4b02bb",
"0- c #8325d8",
"0. c #5606c2",
"0/ c #3c00ac",
"0: c #5807c4",
"0; c #4000b0",
"0< c #660ecb",
"0= c #5d09c6",
"0> c #5104bf",
"0? c #6e13cf",
"0@ c #9336de",
"0[ c #5004be",
"0] c #8324d8",
"0^ c #4100b1",
"0_ c #4801b8",
"0{ c #8021d7",
"0| c #7518d2",
"0} c #4c03bb",
"0~ c #4000b1",
"10 c #973be0",
"11 c #781bd4",
"12 c #5204c0",
"13 c #5a08c5",
"14 c #670fcc",
"15 c #4401b5",
"16 c #5c09c6",
"17 c #3e00ad",
"18 c #3700a0",
"19 c #4e03bc",
"1a c #9f45e3",
"1b c #8a2cdb",
"1c c #9437df",
"1d c #3800a2",
"1e c #7519d3",
"1f c #5f0ac8",
"1g c #7c1fd6",
"1h c #4a02ba",
"1i c #670ecc",
"1j c #7a1cd4",
"1k c #4601b7",
"1l c #8b2ddc",
"1m c #610bc8",
"1n c #8b2ddb",
"1o c #4100b2",
"1p c #37009d",
"1q c #4601b6",
"1r c #9133de",
"1s c #8f31dd",
"1t c #4f03be",
"1u c #9a3ee1",
"1v c #7a1cd5",
"1w c #4c03bc",
"1x c #9235de",
"1y c #6d12ce",
"1z c #6910cd",
"000102030405060708090a02060b0c00",
"0d0e0f0g0h0i0j0k0l0m0l0n0k0l0k0o",
"0p0q0r0s0c0t0u0v0w000x0y0z0c0A0n",
"0z0B080C0D0E0F0G0H0I040F0v0J0t0K",
"0L0M0N0b0O0P0Q0C0j0R0S040T0U0V0D",
"0W0X0Y0Z0!0#0t0J0$0X0N0C0%0&0(0R",
"0)0B0o0p0*0+0$0,0R040n0D0c0X0-0.",
"0G0z0/0:060j0;0+0O0Q0<0=0;0c0X0K",
"030M0V0>06060+0b0?0e0@0%0Y0$0E08",
"0G0[0,0]0#0j0^0_0=0{0|0B0}050<0.",
"0~0M0L0A10111213140B0F010R0$0M15",
"160?1718191a020n0a1b1c0^1d001e0:",
"1f0r1g0~181h0-1i1f1j150L1k1c1l1m",
"120u1n011o1p050[0[1q181q1r1s1q1t",
"1k1h0=1u1v0V0j1w000J0M1x0-0R0D00",
"181m0=1y1z0,060e0g0>0<0a0;0L0z0D"
};
