/* XPM */
static char * image[] = {
"16 16 122 2",
"00 c #3900a6",
"01 c #4902b9",
"02 c #4100b2",
"03 c #600ac8",
"04 c #9437df",
"05 c #6c12ce",
"06 c #3c00ab",
"07 c #5004be",
"08 c #3d00ac",
"09 c #3d00ad",
"0a c #5807c3",
"0b c #5204c0",
"0c c #4200b2",
"0d c #4b02bb",
"0e c #5606c2",
"0f c #7115d1",
"0g c #8527d9",
"0h c #5003be",
"0i c #5807c4",
"0j c #8d2fdc",
"0k c #3800a3",
"0l c #5305c0",
"0m c #4a02ba",
"0n c #6910cd",
"0o c #4300b3",
"0p c #37009c",
"0q c #5405c1",
"0r c #7e21d6",
"0s c #7519d3",
"0t c #7417d2",
"0u c #6d13cf",
"0v c #9539df",
"0w c #7619d3",
"0x c #4701b7",
"0y c #8425d9",
"0z c #650dcb",
"0A c #4e03bd",
"0B c #9337df",
"0C c #6d12cf",
"0D c #3c00ac",
"0E c #3b00a9",
"0F c #a54ee5",
"0G c #5f0ac8",
"0H c #8f32dd",
"0I c #7418d2",
"0J c #5a08c5",
"0K c #4f03bd",
"0L c #4d03bc",
"0M c #5b08c5",
"0N c #5d09c6",
"0O c #4f03be",
"0P c #3900a7",
"0Q c #5104bf",
"0R c #6e13cf",
"0S c #4b02ba",
"0T c #4501b6",
"0U c #600bc8",
"0V c #4501b5",
"0W c #5706c3",
"0X c #4601b7",
"0Y c #3800a4",
"0Z c #3a00a7",
"0! c #4801b8",
"0# c #4401b5",
"0$ c #4000b0",
"0% c #3900a5",
"0& c #3e00ad",
"0( c #3a00a9",
"0) c #5c08c6",
"0* c #5f0ac7",
"0+ c #5505c1",
"0, c #660ecb",
"0- c #3f00b0",
"0. c #670ecc",
"0/ c #5e09c7",
"0: c #8a2cdb",
"0; c #8223d8",
"0< c #7b1ed5",
"0= c #6b11ce",
"0> c #7317d2",
"0? c #3700a0",
"0@ c #5305c1",
"0[ c #680fcc",
"0] c #8325d8",
"0^ c #7216d1",
"0_ c #892adb",
"0{ c #610bc9",
"0| c #6f14d0",
"0} c #3f00af",
"0~ c #3a00a8",
"10 c #6a10cd",
"11 c #4a02b9",
"12 c #8022d7",
"13 c #620cc9",
"14 c #3e00ae",
"15 c #4601b6",
"16 c #4000b1",
"17 c #9e43e2",
"18 c #640dca",
"19 c #4301b4",
"1a c #892bdb",
"1b c #8224d8",
"1c c #4c02bb",
"1d c #4e03bc",
"1e c #7e20d6",
"1f c #5204bf",
"1g c #5e0ac7",
"1h c #670fcc",
"1i c #771ad3",
"1j c #6d12ce",
"1k c #8123d8",
"1l c #5c09c6",
"1m c #5d09c7",
"1n c #781bd4",
"1o c #4802b8",
"1p c #4701b8",
"1q c #5a07c4",
"1r c #37009f",
"1s c #8123d7",
"1t c #630cca",
"1u c #8c2edc",
"1v c #3700a1",
"000102030405060708090a0b0c0d0e0f",
"0g0h0i0j05080k0l010m0n0o0p0q0r0s",
"0t0u0v0w0l0x0b0y0z0A0B0C0D0E0a0F",
"0G0H0I0J0K0L0M0N0O0P0Q0R070S0T0U",
"0l0N0V0O0i070W0D0X0Y0Z0q0!0L0#0$",
"0S0%0D0i0G0K0&0(0)0*020x0d0O0+08",
"0M0$030v0,0-0D0.0/0:0;0l0x0L0<0=",
"0C070C0>090?0@0[0]0^040_0x0Y0L0^",
"0{0x0n0|0}0~0#0L0b0|100R0i010Q0R",
"110?0L1213140%0$15160{170R0D0}0K",
"180o0~07030a190Z060V1a1b1c0?1d0/",
"1e0I071f1g101h0!011i1j0Q0L1f1k12",
"0!1j0,0q1l0l0w0g0:121l0/1m0)1n1c",
"0%0V0U0z0a151c0:121o1p0q0q1q010k",
"191r0m1s0<0}0%1c0T0%0!1t0l0#000$",
"0o090&0U1u0R0c1f0L1c0:0I0c1v0b0J"
};
