/* XPM */
static char * image[] = {
"16 16 29 1",
"0 c #b38c51",
"1 c #9f844d",
"2 c #9b7742",
"3 c #7c623e",
"4 c #2c2213",
"5 c #362a15",
"6 c #271e11",
"7 c #315b8e",
"8 c #2a4e7a",
"9 c #41311a",
"a c #911111",
"b c #a89b0a",
"c c #897e08",
"d c #3163a3",
"e c #773007",
"f c #bc1616",
"g c #758e11",
"h c #b5b5b5",
"i c #898989",
"j c #118e6b",
"k c #cca66c",
"l c #632805",
"m c #5e720d",
"n c #0c6b50",
"o c #bc9862",
"p c #556809",
"q c #494949",
"r c #3f3f3f",
"s c #695433",
"0112232221111210",
"0444554445567840",
"0599aa999bc9d850",
"2aeefa99ghiad8j2",
"kfeefad4gbcad8jk",
"0felfedgmbged7j0",
"0al9ae8m5cge87n1",
"20ookkko00ooo002",
"0221131221112230",
"055665mp54655640",
"0fa5d8gma99mp950",
"2hind8gmaf4gmjn3",
"kfand8qrefagmhik",
"0fend7qr5afgmjn0",
"1aes87mmseampn80",
"0ookkko00oooo000"
};
