/* XPM */
static char * image[] = {
"16 16 6 1",
"0 c #6e6d6d",
"1 c #616161",
"2 c #a6a6a6",
"3 c #525252",
"4 c #b5b5b5",
"5 c #888788",
"0122311242515425",
"1245534425531505",
"1252012552013150",
"1150115050152513",
"3015421511422251",
"4024550135542505",
"2515255011025014",
"5500550154210515",
"0142001545551130",
"1425050055101521",
"5050511310013224",
"5001105421135445",
"0542014252015505",
"1425512505501150",
"2250501055012511",
"1511050101154250"
};
