/* XPM */
static char * image[] = {
"16 16 11 1",
"0 c #627941",
"1 c #525d39",
"2 c #a6a6a6",
"3 c #5a6d41",
"4 c #7a8f55",
"5 c #738552",
"6 c #616161",
"7 c #888788",
"8 c #b5b5b5",
"9 c #6e6d6d",
"a c #525252",
"0122311345067825",
"1287713450716797",
"6272915003911179",
"6679317379105011",
"a961176366755503",
"81457296a7207037",
"2710277931177912",
"7711179155019767",
"91145010705036a9",
"1353009977301301",
"7900311119931052",
"7113130451617227",
"1345914505967797",
"0407715097791179",
"7579791977961701",
"1766931116678270"
};
