/* XPM */
static char * image[] = {
"16 16 15 1",
"0 c #573f7f",
"1 c #483860",
"2 c #2b0178",
"3 c #6006ab",
"4 c #2c2943",
"5 c #211b31",
"6 c #1c1421",
"7 c #fbda74",
"8 c #06030b",
"9 c #ffffff",
"a c #000001",
"b c #100c1c",
"c c #271e3d",
"d c #3b2754",
"e c #8308e4",
"0102000113101310",
"4521046666402154",
"5511166666611155",
"1511456786541151",
"1154557988554511",
"1485568888655841",
"8888661881668888",
"1411864114681141",
"aa54161001414bbb",
"2b24464444644b22",
"b2252b6666bab2ac",
"ab82b28b8ddcbb32",
"8ddbae32cde8b3b8",
"ccb8e8ab2b3eeac8",
"ac83b8c883ba3aa8",
"b8a3a8bcb2888288"
};
