/* XPM */
static char * image[] = {
"16 16 17 1",
"0 c #573f7f",
"1 c #483860",
"2 c #2b0178",
"3 c #6006ab",
"4 c #2c2943",
"5 c #211b31",
"6 c #1c1421",
"7 c #fbda74",
"8 c #cc8654",
"9 c #ffffff",
"a c #fff0da",
"b c #06030b",
"c c #000001",
"d c #100c1c",
"e c #271e3d",
"f c #3b2754",
"g c #8308e4",
"0102000113101310",
"4521046666402154",
"5511166666611155",
"1511456786541151",
"11545579a8554511",
"14b556bbbb655b41",
"bbbb661bb166bbbb",
"1411b641146b1141",
"cc54161001414ddd",
"2d24464444644d22",
"d2252d6666dcd2ce",
"cdb2d2bdbffedd32",
"bffdcg32efgbd3db",
"eedbgbcd2d3ggceb",
"ceb3dbebb3dc3ccb",
"dbc3cbded2bbb2bb"
};
