/* XPM */
static char * image[] = {
"16 16 13 1",
"0 c #573f7f",
"1 c #483860",
"2 c #2b0178",
"3 c #6006ab",
"4 c #2c2943",
"5 c #211b31",
"6 c #1c1421",
"7 c #06030b",
"8 c #000001",
"9 c #100c1c",
"a c #271e3d",
"b c #3b2754",
"c c #8308e4",
"0102000113101310",
"4521046666402154",
"5511166666611155",
"1511456776541151",
"1154557777554511",
"1475567777655741",
"7777661771667777",
"1411764114671141",
"8854161001414999",
"2924464444644922",
"922529666698928a",
"897292797bba9932",
"7bb98c32abc79397",
"aa97c789293cc8a7",
"8a7397a773983887",
"9783879a92777277"
};
