/* XPM */
static char * image[] = {
"16 16 5 1",
"0 c #5b4538",
"1 c #49372c",
"2 c #3d2e25",
"3 c #352922",
"4 c #6a5244",
"0112211232210044",
"1123102323201004",
"1233002332111410",
"2222013321110001",
"2331031111001012",
"3220011000100112",
"2200100044011123",
"1011001040112221",
"1220044011122111",
"2200440112220012",
"0404401122101222",
"4440121220013320",
"0401122200123214",
"4011233100233104",
"4021332101232140",
"4112321112321004"
};
